{
  "accessors": [
    {
      "bufferView": 2,
      "componentType": 5126,
      "count": 18,
      "max": [
        0.23339839279651642,
        1.0,
        0.23339839279651642
      ],
      "min": [
        -0.23339839279651642,
        0.0,
        -0.23339839279651642
      ],
      "type": "VEC3"
    },
    {
      "bufferView": 2,
      "byteOffset": 216,
      "componentType": 5126,
      "count": 18,
      "max": [
        1.0,
        0.0,
        1.0
      ],
      "min": [
        0.0,
        0.0,
        -0.7071080207824707
      ],
      "type": "VEC3"
    },
    {
      "bufferView": 3,
      "componentType": 5126,
      "count": 18,
      "max": [
        2.2348248762682488e-07,
        -1.0,
        3.074717938034155e-07,
        1.0
      ],
      "min": [
        -3.074718222251249e-07,
        -1.0,
        0.0,
        1.0
      ],
      "type": "VEC4"
    },
    {
      "bufferView": 1,
      "componentType": 5126,
      "count": 18,
      "max": [
        0.9461116194725037,
        0.31696081161499023
      ],
      "min": [
        0.6293951272964478,
        0.00024414900690317154
      ],
      "type": "VEC2"
    },
    {
      "bufferView": 0,
      "componentType": 5125,
      "count": 24,
      "type": "SCALAR"
    },
    {
      "bufferView": 2,
      "byteOffset": 432,
      "componentType": 5126,
      "count": 18,
      "max": [
        0.23583979904651642,
        1.0,
        0.23583979904651642
      ],
      "min": [
        -0.23583979904651642,
        0.0,
        -0.23583990335464478
      ],
      "type": "VEC3"
    },
    {
      "bufferView": 2,
      "byteOffset": 648,
      "componentType": 5126,
      "count": 18,
      "max": [
        1.0,
        0.0,
        1.0
      ],
      "min": [
        0.0,
        0.0,
        -0.7071080207824707
      ],
      "type": "VEC3"
    },
    {
      "bufferView": 3,
      "byteOffset": 288,
      "componentType": 5126,
      "count": 18,
      "max": [
        0.7071079611778259,
        -7.938393196127436e-07,
        1.0,
        1.0
      ],
      "min": [
        -1.0,
        -1.3892193919673446e-06,
        0.0,
        1.0
      ],
      "type": "VEC4"
    },
    {
      "bufferView": 1,
      "byteOffset": 144,
      "componentType": 5126,
      "count": 18,
      "max": [
        0.9400050044059753,
        0.6943901181221008
      ],
      "min": [
        0.6216365098953247,
        0.37602129578590393
      ],
      "type": "VEC2"
    },
    {
      "bufferView": 0,
      "byteOffset": 96,
      "componentType": 5125,
      "count": 24,
      "type": "SCALAR"
    },
    {
      "bufferView": 2,
      "byteOffset": 864,
      "componentType": 5126,
      "count": 16,
      "max": [
        0.3137499988079071,
        1.0,
        0.3137499988079071
      ],
      "min": [
        -0.3137499988079071,
        0.0,
        -0.3137499988079071
      ],
      "type": "VEC3"
    },
    {
      "bufferView": 2,
      "byteOffset": 1056,
      "componentType": 5126,
      "count": 16,
      "max": [
        1.0,
        0.0,
        1.0
      ],
      "min": [
        0.0,
        0.0,
        -0.7071079611778259
      ],
      "type": "VEC3"
    },
    {
      "bufferView": 3,
      "byteOffset": 576,
      "componentType": 5126,
      "count": 16,
      "max": [
        1.0,
        0.0,
        0.0,
        1.0
      ],
      "min": [
        -0.7071079611778259,
        -3.880112160459248e-07,
        -1.0,
        1.0
      ],
      "type": "VEC4"
    },
    {
      "bufferView": 1,
      "byteOffset": 288,
      "componentType": 5126,
      "count": 16,
      "max": [
        0.6208270788192749,
        0.7432307004928589
      ],
      "min": [
        0.25361770391464233,
        0.37602150440216064
      ],
      "type": "VEC2"
    },
    {
      "bufferView": 0,
      "byteOffset": 192,
      "componentType": 5125,
      "count": 24,
      "type": "SCALAR"
    },
    {
      "bufferView": 2,
      "byteOffset": 1248,
      "componentType": 5126,
      "count": 16,
      "max": [
        0.2158202975988388,
        1.0,
        0.2158202975988388
      ],
      "min": [
        -0.2158202975988388,
        0.0,
        -0.2158202975988388
      ],
      "type": "VEC3"
    },
    {
      "bufferView": 2,
      "byteOffset": 1440,
      "componentType": 5126,
      "count": 16,
      "max": [
        0.7071073651313782,
        0.0,
        1.0
      ],
      "min": [
        -1.0,
        0.0,
        -8.146030268108007e-07
      ],
      "type": "VEC3"
    },
    {
      "bufferView": 3,
      "byteOffset": 832,
      "componentType": 5126,
      "count": 16,
      "max": [
        3.6695503524697415e-08,
        -1.0,
        3.669556747354363e-08,
        1.0
      ],
      "min": [
        -3.669551063012477e-08,
        -1.0,
        -3.560711363888476e-14,
        1.0
      ],
      "type": "VEC4"
    },
    {
      "bufferView": 1,
      "byteOffset": 416,
      "componentType": 5126,
      "count": 16,
      "max": [
        0.9606927037239075,
        0.9997559189796448
      ],
      "min": [
        0.6561360955238342,
        0.6951994895935059
      ],
      "type": "VEC2"
    },
    {
      "bufferView": 0,
      "byteOffset": 288,
      "componentType": 5125,
      "count": 24,
      "type": "SCALAR"
    },
    {
      "bufferView": 2,
      "byteOffset": 1632,
      "componentType": 5126,
      "count": 18,
      "max": [
        0.27241769433021545,
        1.0,
        0.27241769433021545
      ],
      "min": [
        -0.27241769433021545,
        0.0,
        -0.27241769433021545
      ],
      "type": "VEC3"
    },
    {
      "bufferView": 2,
      "byteOffset": 1848,
      "componentType": 5126,
      "count": 18,
      "max": [
        0.707107424736023,
        0.0,
        1.0
      ],
      "min": [
        -1.0,
        0.0,
        -8.146030268108007e-07
      ],
      "type": "VEC3"
    },
    {
      "bufferView": 3,
      "byteOffset": 1088,
      "componentType": 5126,
      "count": 18,
      "max": [
        8.146030268108007e-07,
        0.0,
        0.707107424736023,
        1.0
      ],
      "min": [
        -1.0,
        -1.1799897237096957e-07,
        -1.0,
        1.0
      ],
      "type": "VEC4"
    },
    {
      "bufferView": 1,
      "byteOffset": 544,
      "componentType": 5126,
      "count": 18,
      "max": [
        0.25280851125717163,
        0.4638049006462097
      ],
      "min": [
        0.00024414100334979594,
        0.00024414100334979594
      ],
      "type": "VEC2"
    },
    {
      "bufferView": 0,
      "byteOffset": 384,
      "componentType": 5125,
      "count": 24,
      "type": "SCALAR"
    },
    {
      "bufferView": 2,
      "byteOffset": 2064,
      "componentType": 5126,
      "count": 18,
      "max": [
        0.3271484076976776,
        1.0,
        0.3271484076976776
      ],
      "min": [
        -0.3271484076976776,
        0.0,
        -0.3271484076976776
      ],
      "type": "VEC3"
    },
    {
      "bufferView": 2,
      "byteOffset": 2280,
      "componentType": 5126,
      "count": 18,
      "max": [
        0.0,
        0.0,
        1.0
      ],
      "min": [
        -1.0,
        0.0,
        -0.7071080207824707
      ],
      "type": "VEC3"
    },
    {
      "bufferView": 3,
      "byteOffset": 1376,
      "componentType": 5126,
      "count": 18,
      "max": [
        1.0,
        3.644202877239877e-07,
        1.0,
        1.0
      ],
      "min": [
        -0.7071080207824707,
        3.627594935551315e-07,
        0.0,
        1.0
      ],
      "type": "VEC4"
    },
    {
      "bufferView": 1,
      "byteOffset": 688,
      "componentType": 5126,
      "count": 18,
      "max": [
        0.628585696220398,
        0.3752121031284332
      ],
      "min": [
        0.2536177933216095,
        0.00024414900690317154
      ],
      "type": "VEC2"
    },
    {
      "bufferView": 0,
      "byteOffset": 480,
      "componentType": 5125,
      "count": 24,
      "type": "SCALAR"
    }
  ],
  "asset": {
    "extras": {
      "author": "Chenuka Wijesundara (https://sketchfab.com/ChenukaWijesundara)",
      "license": "CC-BY-4.0 (http://creativecommons.org/licenses/by/4.0/)",
      "source": "https://sketchfab.com/3d-models/low-poly-foliage-pack-01-11a0d51ff4074db89de7e96ae3d181a9",
      "title": "Low Poly Foliage Pack 01"
    },
    "generator": "Sketchfab-12.65.0",
    "version": "2.0"
  },
  "bufferViews": [
    {
      "buffer": 0,
      "byteLength": 576,
      "name": "floatBufferViews",
      "target": 34963
    },
    {
      "buffer": 0,
      "byteLength": 832,
      "byteOffset": 576,
      "byteStride": 8,
      "name": "floatBufferViews",
      "target": 34962
    },
    {
      "buffer": 0,
      "byteLength": 2496,
      "byteOffset": 1408,
      "byteStride": 12,
      "name": "floatBufferViews",
      "target": 34962
    },
    {
      "buffer": 0,
      "byteLength": 1664,
      "byteOffset": 3904,
      "byteStride": 16,
      "name": "floatBufferViews",
      "target": 34962
    }
  ],
  "buffers": [
    {
      "byteLength": 5568,
      "uri": "scene.bin"
    }
  ],
  "images": [
    {
      "uri": "textures/Material.001_baseColor.png"
    },
    {
      "uri": "textures/Material.001_normal.png"
    }
  ],
  "materials": [
    {
      "alphaCutoff": 0.13519501781890791,
      "alphaMode": "MASK",
      "doubleSided": true,
      "name": "Material.001",
      "normalTexture": {
        "index": 1
      },
      "pbrMetallicRoughness": {
        "baseColorTexture": {
          "index": 0
        },
        "metallicFactor": 0.0,
        "roughnessFactor": 0.8211145618
      }
    }
  ],
  "meshes": [
    {
      "name": "Material_001-material",
      "primitives": [
        {
          "attributes": {
            "NORMAL": 1,
            "POSITION": 0,
            "TANGENT": 2,
            "TEXCOORD_0": 3
          },
          "indices": 4,
          "material": 0,
          "mode": 4
        }
      ]
    },
    {
      "name": "Material_001-material",
      "primitives": [
        {
          "attributes": {
            "NORMAL": 6,
            "POSITION": 5,
            "TANGENT": 7,
            "TEXCOORD_0": 8
          },
          "indices": 9,
          "material": 0,
          "mode": 4
        }
      ]
    },
    {
      "name": "Material_001-material",
      "primitives": [
        {
          "attributes": {
            "NORMAL": 11,
            "POSITION": 10,
            "TANGENT": 12,
            "TEXCOORD_0": 13
          },
          "indices": 14,
          "material": 0,
          "mode": 4
        }
      ]
    },
    {
      "name": "Material_001-material",
      "primitives": [
        {
          "attributes": {
            "NORMAL": 16,
            "POSITION": 15,
            "TANGENT": 17,
            "TEXCOORD_0": 18
          },
          "indices": 19,
          "material": 0,
          "mode": 4
        }
      ]
    },
    {
      "name": "Material_001-material",
      "primitives": [
        {
          "attributes": {
            "NORMAL": 21,
            "POSITION": 20,
            "TANGENT": 22,
            "TEXCOORD_0": 23
          },
          "indices": 24,
          "material": 0,
          "mode": 4
        }
      ]
    },
    {
      "name": "Material_001-material",
      "primitives": [
        {
          "attributes": {
            "NORMAL": 26,
            "POSITION": 25,
            "TANGENT": 27,
            "TEXCOORD_0": 28
          },
          "indices": 29,
          "material": 0,
          "mode": 4
        }
      ]
    }
  ],
  "nodes": [
    {
      "children": [
        1
      ],
      "matrix": [
        1.0,
        0.0,
        0.0,
        0.0,
        0.0,
        2.220446049250313e-16,
        -1.0,
        0.0,
        0.0,
        1.0,
        2.220446049250313e-16,
        0.0,
        0.0,
        0.0,
        0.0,
        1.0
      ],
      "name": "Sketchfab_model"
    },
    {
      "children": [
        2,
        4,
        6,
        8,
        10,
        12
      ],
      "name": "Collada visual scene group"
    },
    {
      "children": [
        3
      ],
      "matrix": [
        0.9500635,
        -0.3120566,
        0.0,
        0.0,
        -1.36404e-08,
        -4.15286e-08,
        1.0,
        0.0,
        -0.3120566,
        -0.9500635,
        -4.37114e-08,
        0.0,
        0.0,
        0.0,
        0.0,
        1.0
      ],
      "name": "TexturesCom_NaturePlants0032_1_masked_S"
    },
    {
      "mesh": 0,
      "name": "Material_001-material"
    },
    {
      "children": [
        5
      ],
      "matrix": [
        0.9417021,
        -0.3364479,
        0.0,
        0.0,
        -1.47066e-08,
        -4.11631e-08,
        1.0,
        0.0,
        -0.3364479,
        -0.9417021,
        -4.37114e-08,
        0.0,
        1.5,
        0.0,
        0.0,
        1.0
      ],
      "name": "TexturesCom_NaturePlants0072_1_masked_S"
    },
    {
      "mesh": 1,
      "name": "Material_001-material"
    },
    {
      "children": [
        7
      ],
      "matrix": [
        0.7341274,
        -0.6790117,
        0.0,
        0.0,
        -2.96805e-08,
        -3.20897e-08,
        1.0,
        0.0,
        -0.6790117,
        -0.7341274,
        -4.37114e-08,
        0.0,
        -0.5,
        0.0,
        0.0,
        1.0
      ],
      "name": "TexturesCom_NaturePlants0033_9_M"
    },
    {
      "mesh": 2,
      "name": "Material_001-material"
    },
    {
      "children": [
        9
      ],
      "matrix": [
        0.9808235,
        -0.194898,
        0.0,
        0.0,
        -8.51926e-09,
        -4.28732e-08,
        1.0,
        0.0,
        -0.194898,
        -0.9808235,
        -4.37114e-08,
        0.0,
        -1.0,
        0.0,
        0.0,
        1.0
      ],
      "name": "TexturesCom_NaturePlants0049_1_masked_S.001"
    },
    {
      "mesh": 3,
      "name": "Material_001-material"
    },
    {
      "children": [
        11
      ],
      "matrix": [
        -0.770727,
        -0.6371655,
        0.0,
        0.0,
        -2.78514e-08,
        3.36895e-08,
        1.0,
        0.0,
        -0.6371655,
        0.770727,
        -4.37114e-08,
        0.0,
        1.0,
        0.0,
        0.0,
        1.0
      ],
      "name": "NicePng_grass-png-transparent_8738791.001"
    },
    {
      "mesh": 4,
      "name": "Material_001-material"
    },
    {
      "children": [
        13
      ],
      "matrix": [
        0.4350303,
        0.9004158,
        0.0,
        0.0,
        3.93584e-08,
        -1.90158e-08,
        1.0,
        0.0,
        0.9004158,
        -0.4350303,
        -4.37114e-08,
        0.0,
        0.5,
        0.0,
        0.0,
        1.0
      ],
      "name": "TexturesCom_NaturePlants0026_1_masked_S.003"
    },
    {
      "mesh": 5,
      "name": "Material_001-material"
    }
  ],
  "samplers": [
    {
      "magFilter": 9729,
      "minFilter": 9987,
      "wrapS": 10497,
      "wrapT": 10497
    }
  ],
  "scene": 0,
  "scenes": [
    {
      "name": "Sketchfab_Scene",
      "nodes": [
        0
      ]
    }
  ],
  "textures": [
    {
      "sampler": 0,
      "source": 0
    },
    {
      "sampler": 0,
      "source": 1
    }
  ]
}
