{
	"asset":{
		"generator":"Khronos glTF Blender I/O v5.0.21",
		"version":"2.0"
	},
	"scene":0,
	"scenes":[
		{
			"name":"Scene",
			"nodes":[
				2
			]
		}
	],
	"nodes":[
		{
			"mesh":0,
			"name":"mesh_0"
		},
		{
			"children":[
				0
			],
			"name":"Node_103",
			"scale":[
				0.00800000037997961,
				0.00800000037997961,
				0.00800000037997961
			]
		},
		{
			"children":[
				1
			],
			"name":"sponza_cd.glb"
		}
	],
	"materials":[
		{
			"alphaMode":"MASK",
			"doubleSided":true,
			"name":"Material_0",
			"normalTexture":{
				"index":0
			},
			"pbrMetallicRoughness":{
				"baseColorFactor":[
					0.5879999995231628,
					0.5879999995231628,
					0.5879999995231628,
					1
				],
				"baseColorTexture":{
					"index":1
				},
				"metallicRoughnessTexture":{
					"index":2
				}
			}
		},
		{
			"alphaMode":"MASK",
			"doubleSided":true,
			"name":"Material_1",
			"normalTexture":{
				"index":3
			},
			"pbrMetallicRoughness":{
				"baseColorFactor":[
					0.5879999995231628,
					0.5879999995231628,
					0.5879999995231628,
					1
				],
				"baseColorTexture":{
					"index":4
				},
				"metallicRoughnessTexture":{
					"index":5
				}
			}
		},
		{
			"name":"Material_2",
			"normalTexture":{
				"index":6
			},
			"pbrMetallicRoughness":{
				"baseColorFactor":[
					0.5879999995231628,
					0.5879999995231628,
					0.5879999995231628,
					1
				],
				"baseColorTexture":{
					"index":7
				},
				"metallicRoughnessTexture":{
					"index":8
				}
			}
		},
		{
			"name":"Material_3",
			"normalTexture":{
				"index":9
			},
			"pbrMetallicRoughness":{
				"baseColorFactor":[
					0.5879999995231628,
					0.5879999995231628,
					0.5879999995231628,
					1
				],
				"baseColorTexture":{
					"index":10
				},
				"metallicRoughnessTexture":{
					"index":11
				}
			}
		},
		{
			"name":"Material_4",
			"normalTexture":{
				"index":12
			},
			"pbrMetallicRoughness":{
				"baseColorFactor":[
					0.5879999995231628,
					0.5879999995231628,
					0.5879999995231628,
					1
				],
				"baseColorTexture":{
					"index":13
				},
				"metallicRoughnessTexture":{
					"index":14
				}
			}
		},
		{
			"name":"Material_5",
			"normalTexture":{
				"index":15
			},
			"pbrMetallicRoughness":{
				"baseColorFactor":[
					0.5879999995231628,
					0.5879999995231628,
					0.5879999995231628,
					1
				],
				"baseColorTexture":{
					"index":16
				},
				"metallicRoughnessTexture":{
					"index":17
				}
			}
		},
		{
			"name":"Material_6",
			"normalTexture":{
				"index":18
			},
			"pbrMetallicRoughness":{
				"baseColorFactor":[
					0.5879999995231628,
					0.5879999995231628,
					0.5879999995231628,
					1
				],
				"baseColorTexture":{
					"index":19
				},
				"metallicRoughnessTexture":{
					"index":20
				}
			}
		},
		{
			"name":"Material_7",
			"normalTexture":{
				"index":21
			},
			"pbrMetallicRoughness":{
				"baseColorFactor":[
					0.5879999995231628,
					0.5879999995231628,
					0.5879999995231628,
					1
				],
				"baseColorTexture":{
					"index":22
				},
				"metallicRoughnessTexture":{
					"index":23
				}
			}
		},
		{
			"name":"Material_8",
			"normalTexture":{
				"index":24
			},
			"pbrMetallicRoughness":{
				"baseColorFactor":[
					0.5879999995231628,
					0.5879999995231628,
					0.5879999995231628,
					1
				],
				"baseColorTexture":{
					"index":25
				},
				"metallicRoughnessTexture":{
					"index":26
				}
			}
		},
		{
			"name":"Material_9",
			"normalTexture":{
				"index":27
			},
			"pbrMetallicRoughness":{
				"baseColorFactor":[
					0.5879999995231628,
					0.5879999995231628,
					0.5879999995231628,
					1
				],
				"baseColorTexture":{
					"index":28
				},
				"metallicRoughnessTexture":{
					"index":29
				}
			}
		},
		{
			"name":"Material_10",
			"normalTexture":{
				"index":30
			},
			"pbrMetallicRoughness":{
				"baseColorFactor":[
					0.5879999995231628,
					0.5879999995231628,
					0.5879999995231628,
					1
				],
				"baseColorTexture":{
					"index":31
				},
				"metallicRoughnessTexture":{
					"index":32
				}
			}
		},
		{
			"name":"Material_11",
			"normalTexture":{
				"index":33
			},
			"pbrMetallicRoughness":{
				"baseColorFactor":[
					0.5879999995231628,
					0.5879999995231628,
					0.5879999995231628,
					1
				],
				"baseColorTexture":{
					"index":34
				},
				"metallicRoughnessTexture":{
					"index":35
				}
			}
		},
		{
			"name":"Material_12",
			"pbrMetallicRoughness":{
				"baseColorFactor":[
					0.5879999995231628,
					0.5879999995231628,
					0.5879999995231628,
					1
				],
				"baseColorTexture":{
					"index":36
				},
				"metallicFactor":0
			}
		},
		{
			"name":"Material_13",
			"normalTexture":{
				"index":37
			},
			"pbrMetallicRoughness":{
				"baseColorFactor":[
					0.5879999995231628,
					0.5879999995231628,
					0.5879999995231628,
					1
				],
				"baseColorTexture":{
					"index":38
				},
				"metallicRoughnessTexture":{
					"index":39
				}
			}
		},
		{
			"name":"Material_14",
			"normalTexture":{
				"index":40
			},
			"pbrMetallicRoughness":{
				"baseColorFactor":[
					0.5879999995231628,
					0.5879999995231628,
					0.5879999995231628,
					1
				],
				"baseColorTexture":{
					"index":41
				},
				"metallicRoughnessTexture":{
					"index":42
				}
			}
		},
		{
			"name":"Material_15",
			"normalTexture":{
				"index":43
			},
			"pbrMetallicRoughness":{
				"baseColorFactor":[
					0.5879999995231628,
					0.5879999995231628,
					0.5879999995231628,
					1
				],
				"baseColorTexture":{
					"index":44
				},
				"metallicRoughnessTexture":{
					"index":45
				}
			}
		},
		{
			"name":"Material_16",
			"normalTexture":{
				"index":46
			},
			"pbrMetallicRoughness":{
				"baseColorFactor":[
					0.5879999995231628,
					0.5879999995231628,
					0.5879999995231628,
					1
				],
				"baseColorTexture":{
					"index":47
				},
				"metallicRoughnessTexture":{
					"index":48
				}
			}
		},
		{
			"name":"Material_17",
			"normalTexture":{
				"index":49
			},
			"pbrMetallicRoughness":{
				"baseColorFactor":[
					0.5879999995231628,
					0.5879999995231628,
					0.5879999995231628,
					1
				],
				"baseColorTexture":{
					"index":50
				},
				"metallicRoughnessTexture":{
					"index":51
				}
			}
		},
		{
			"name":"Material_18",
			"normalTexture":{
				"index":52
			},
			"pbrMetallicRoughness":{
				"baseColorFactor":[
					0.5879999995231628,
					0.5879999995231628,
					0.5879999995231628,
					1
				],
				"baseColorTexture":{
					"index":53
				},
				"metallicRoughnessTexture":{
					"index":54
				}
			}
		},
		{
			"name":"Material_19",
			"normalTexture":{
				"index":55
			},
			"pbrMetallicRoughness":{
				"baseColorFactor":[
					0.5879999995231628,
					0.5879999995231628,
					0.5879999995231628,
					1
				],
				"baseColorTexture":{
					"index":56
				},
				"metallicRoughnessTexture":{
					"index":57
				}
			}
		},
		{
			"alphaMode":"MASK",
			"doubleSided":true,
			"name":"Material_20",
			"normalTexture":{
				"index":58
			},
			"pbrMetallicRoughness":{
				"baseColorFactor":[
					0.5879999995231628,
					0.5879999995231628,
					0.5879999995231628,
					1
				],
				"baseColorTexture":{
					"index":59
				},
				"metallicRoughnessTexture":{
					"index":60
				}
			}
		},
		{
			"name":"Material_21",
			"normalTexture":{
				"index":61
			},
			"pbrMetallicRoughness":{
				"baseColorFactor":[
					0.5879999995231628,
					0.5879999995231628,
					0.5879999995231628,
					1
				],
				"baseColorTexture":{
					"index":62
				},
				"metallicRoughnessTexture":{
					"index":63
				}
			}
		},
		{
			"name":"Material_22",
			"normalTexture":{
				"index":64
			},
			"pbrMetallicRoughness":{
				"baseColorFactor":[
					0.5879999995231628,
					0.5879999995231628,
					0.5879999995231628,
					1
				],
				"baseColorTexture":{
					"index":65
				},
				"metallicRoughnessTexture":{
					"index":66
				}
			}
		},
		{
			"name":"Material_23",
			"normalTexture":{
				"index":67
			},
			"pbrMetallicRoughness":{
				"baseColorFactor":[
					0.5879999995231628,
					0.5879999995231628,
					0.5879999995231628,
					1
				],
				"baseColorTexture":{
					"index":68
				},
				"metallicRoughnessTexture":{
					"index":69
				}
			}
		},
		{
			"name":"Material_24",
			"normalTexture":{
				"index":70
			},
			"pbrMetallicRoughness":{
				"baseColorFactor":[
					0.5879999995231628,
					0.5879999995231628,
					0.5879999995231628,
					1
				],
				"baseColorTexture":{
					"index":71
				},
				"metallicRoughnessTexture":{
					"index":72
				}
			}
		}
	],
	"meshes":[
		{
			"name":"Mesh_0",
			"primitives":[
				{
					"attributes":{
						"POSITION":0,
						"NORMAL":1,
						"TEXCOORD_0":2
					},
					"indices":3,
					"material":0
				},
				{
					"attributes":{
						"POSITION":4,
						"NORMAL":5,
						"TEXCOORD_0":6
					},
					"indices":7,
					"material":1
				},
				{
					"attributes":{
						"POSITION":8,
						"NORMAL":9,
						"TEXCOORD_0":10
					},
					"indices":11,
					"material":2
				},
				{
					"attributes":{
						"POSITION":12,
						"NORMAL":13,
						"TEXCOORD_0":14
					},
					"indices":15,
					"material":3
				},
				{
					"attributes":{
						"POSITION":16,
						"NORMAL":17,
						"TEXCOORD_0":18
					},
					"indices":19,
					"material":4
				},
				{
					"attributes":{
						"POSITION":20,
						"NORMAL":21,
						"TEXCOORD_0":22
					},
					"indices":23,
					"material":5
				},
				{
					"attributes":{
						"POSITION":24,
						"NORMAL":25,
						"TEXCOORD_0":26
					},
					"indices":27,
					"material":6
				},
				{
					"attributes":{
						"POSITION":28,
						"NORMAL":29,
						"TEXCOORD_0":30
					},
					"indices":31,
					"material":7
				},
				{
					"attributes":{
						"POSITION":32,
						"NORMAL":33,
						"TEXCOORD_0":34
					},
					"indices":35,
					"material":8
				},
				{
					"attributes":{
						"POSITION":36,
						"NORMAL":37,
						"TEXCOORD_0":38
					},
					"indices":39,
					"material":9
				},
				{
					"attributes":{
						"POSITION":40,
						"NORMAL":41,
						"TEXCOORD_0":42
					},
					"indices":43,
					"material":10
				},
				{
					"attributes":{
						"POSITION":44,
						"NORMAL":45,
						"TEXCOORD_0":46
					},
					"indices":47,
					"material":11
				},
				{
					"attributes":{
						"POSITION":48,
						"NORMAL":49,
						"TEXCOORD_0":50
					},
					"indices":51,
					"material":12
				},
				{
					"attributes":{
						"POSITION":52,
						"NORMAL":53,
						"TEXCOORD_0":54
					},
					"indices":55,
					"material":13
				},
				{
					"attributes":{
						"POSITION":56,
						"NORMAL":57,
						"TEXCOORD_0":58
					},
					"indices":59,
					"material":14
				},
				{
					"attributes":{
						"POSITION":60,
						"NORMAL":61,
						"TEXCOORD_0":62
					},
					"indices":63,
					"material":15
				},
				{
					"attributes":{
						"POSITION":64,
						"NORMAL":65,
						"TEXCOORD_0":66
					},
					"indices":67,
					"material":16
				},
				{
					"attributes":{
						"POSITION":68,
						"NORMAL":69,
						"TEXCOORD_0":70
					},
					"indices":71,
					"material":17
				},
				{
					"attributes":{
						"POSITION":72,
						"NORMAL":73,
						"TEXCOORD_0":74
					},
					"indices":75,
					"material":18
				},
				{
					"attributes":{
						"POSITION":76,
						"NORMAL":77,
						"TEXCOORD_0":78
					},
					"indices":71,
					"material":19
				},
				{
					"attributes":{
						"POSITION":79,
						"NORMAL":80,
						"TEXCOORD_0":81
					},
					"indices":82,
					"material":20
				},
				{
					"attributes":{
						"POSITION":83,
						"NORMAL":84,
						"TEXCOORD_0":85
					},
					"indices":86,
					"material":21
				},
				{
					"attributes":{
						"POSITION":87,
						"NORMAL":88,
						"TEXCOORD_0":89
					},
					"indices":90,
					"material":22
				},
				{
					"attributes":{
						"POSITION":91,
						"NORMAL":92,
						"TEXCOORD_0":93
					},
					"indices":94,
					"material":23
				},
				{
					"attributes":{
						"POSITION":95,
						"NORMAL":96,
						"TEXCOORD_0":97
					},
					"indices":98,
					"material":24
				}
			]
		}
	],
	"textures":[
		{
			"sampler":0,
			"source":0
		},
		{
			"sampler":0,
			"source":1
		},
		{
			"sampler":0,
			"source":2
		},
		{
			"sampler":0,
			"source":3
		},
		{
			"sampler":0,
			"source":4
		},
		{
			"sampler":0,
			"source":5
		},
		{
			"sampler":0,
			"source":6
		},
		{
			"sampler":0,
			"source":7
		},
		{
			"sampler":0,
			"source":8
		},
		{
			"sampler":0,
			"source":9
		},
		{
			"sampler":0,
			"source":10
		},
		{
			"sampler":0,
			"source":11
		},
		{
			"sampler":0,
			"source":12
		},
		{
			"sampler":0,
			"source":13
		},
		{
			"sampler":0,
			"source":14
		},
		{
			"sampler":0,
			"source":15
		},
		{
			"sampler":0,
			"source":16
		},
		{
			"sampler":0,
			"source":17
		},
		{
			"sampler":0,
			"source":18
		},
		{
			"sampler":0,
			"source":19
		},
		{
			"sampler":0,
			"source":20
		},
		{
			"sampler":0,
			"source":21
		},
		{
			"sampler":0,
			"source":22
		},
		{
			"sampler":0,
			"source":23
		},
		{
			"sampler":0,
			"source":24
		},
		{
			"sampler":0,
			"source":25
		},
		{
			"sampler":0,
			"source":26
		},
		{
			"sampler":0,
			"source":27
		},
		{
			"sampler":0,
			"source":28
		},
		{
			"sampler":0,
			"source":29
		},
		{
			"sampler":0,
			"source":30
		},
		{
			"sampler":0,
			"source":31
		},
		{
			"sampler":0,
			"source":32
		},
		{
			"sampler":0,
			"source":33
		},
		{
			"sampler":0,
			"source":34
		},
		{
			"sampler":0,
			"source":35
		},
		{
			"sampler":0,
			"source":36
		},
		{
			"sampler":0,
			"source":37
		},
		{
			"sampler":0,
			"source":38
		},
		{
			"sampler":0,
			"source":39
		},
		{
			"sampler":0,
			"source":40
		},
		{
			"sampler":0,
			"source":41
		},
		{
			"sampler":0,
			"source":42
		},
		{
			"sampler":0,
			"source":43
		},
		{
			"sampler":0,
			"source":44
		},
		{
			"sampler":0,
			"source":42
		},
		{
			"sampler":0,
			"source":45
		},
		{
			"sampler":0,
			"source":46
		},
		{
			"sampler":0,
			"source":42
		},
		{
			"sampler":0,
			"source":47
		},
		{
			"sampler":0,
			"source":48
		},
		{
			"sampler":0,
			"source":49
		},
		{
			"sampler":0,
			"source":50
		},
		{
			"sampler":0,
			"source":51
		},
		{
			"sampler":0,
			"source":49
		},
		{
			"sampler":0,
			"source":52
		},
		{
			"sampler":0,
			"source":53
		},
		{
			"sampler":0,
			"source":49
		},
		{
			"sampler":0,
			"source":54
		},
		{
			"sampler":0,
			"source":55
		},
		{
			"sampler":0,
			"source":56
		},
		{
			"sampler":0,
			"source":57
		},
		{
			"sampler":0,
			"source":58
		},
		{
			"sampler":0,
			"source":59
		},
		{
			"sampler":0,
			"source":60
		},
		{
			"sampler":0,
			"source":61
		},
		{
			"sampler":0,
			"source":62
		},
		{
			"sampler":0,
			"source":63
		},
		{
			"sampler":0,
			"source":64
		},
		{
			"sampler":0,
			"source":65
		},
		{
			"sampler":0,
			"source":66
		},
		{
			"sampler":0,
			"source":67
		},
		{
			"sampler":0,
			"source":68
		}
	],
	"images":[
		{
			"mimeType":"image/png",
			"name":"Image_2",
			"uri":"Textures/Image_2.png"
		},
		{
			"mimeType":"image/png",
			"name":"Image_1",
			"uri":"Textures/Image_1.png"
		},
		{
			"mimeType":"image/png",
			"name":"Image_0",
			"uri":"Textures/Image_0.png"
		},
		{
			"mimeType":"image/png",
			"name":"Image_5",
			"uri":"Textures/Image_5.png"
		},
		{
			"mimeType":"image/png",
			"name":"Image_4",
			"uri":"Textures/Image_4.png"
		},
		{
			"mimeType":"image/png",
			"name":"Image_3",
			"uri":"Textures/Image_3.png"
		},
		{
			"mimeType":"image/png",
			"name":"Image_8",
			"uri":"Textures/Image_8.png"
		},
		{
			"mimeType":"image/png",
			"name":"Image_7",
			"uri":"Textures/Image_7.png"
		},
		{
			"mimeType":"image/png",
			"name":"Image_6",
			"uri":"Textures/Image_6.png"
		},
		{
			"mimeType":"image/png",
			"name":"Image_11",
			"uri":"Textures/Image_11.png"
		},
		{
			"mimeType":"image/png",
			"name":"Image_10",
			"uri":"Textures/Image_10.png"
		},
		{
			"mimeType":"image/png",
			"name":"Image_9",
			"uri":"Textures/Image_9.png"
		},
		{
			"mimeType":"image/png",
			"name":"Image_14",
			"uri":"Textures/Image_14.png"
		},
		{
			"mimeType":"image/png",
			"name":"Image_13",
			"uri":"Textures/Image_13.png"
		},
		{
			"mimeType":"image/png",
			"name":"Image_12",
			"uri":"Textures/Image_12.png"
		},
		{
			"mimeType":"image/png",
			"name":"Image_17",
			"uri":"Textures/Image_17.png"
		},
		{
			"mimeType":"image/png",
			"name":"Image_16",
			"uri":"Textures/Image_16.png"
		},
		{
			"mimeType":"image/png",
			"name":"Image_15",
			"uri":"Textures/Image_15.png"
		},
		{
			"mimeType":"image/png",
			"name":"Image_20",
			"uri":"Textures/Image_20.png"
		},
		{
			"mimeType":"image/png",
			"name":"Image_19",
			"uri":"Textures/Image_19.png"
		},
		{
			"mimeType":"image/png",
			"name":"Image_18",
			"uri":"Textures/Image_18.png"
		},
		{
			"mimeType":"image/png",
			"name":"Image_23",
			"uri":"Textures/Image_23.png"
		},
		{
			"mimeType":"image/png",
			"name":"Image_22",
			"uri":"Textures/Image_22.png"
		},
		{
			"mimeType":"image/png",
			"name":"Image_21",
			"uri":"Textures/Image_21.png"
		},
		{
			"mimeType":"image/png",
			"name":"Image_26",
			"uri":"Textures/Image_26.png"
		},
		{
			"mimeType":"image/png",
			"name":"Image_25",
			"uri":"Textures/Image_25.png"
		},
		{
			"mimeType":"image/png",
			"name":"Image_24",
			"uri":"Textures/Image_24.png"
		},
		{
			"mimeType":"image/png",
			"name":"Image_29",
			"uri":"Textures/Image_29.png"
		},
		{
			"mimeType":"image/png",
			"name":"Image_28",
			"uri":"Textures/Image_28.png"
		},
		{
			"mimeType":"image/png",
			"name":"Image_27",
			"uri":"Textures/Image_27.png"
		},
		{
			"mimeType":"image/png",
			"name":"Image_32",
			"uri":"Textures/Image_32.png"
		},
		{
			"mimeType":"image/png",
			"name":"Image_31",
			"uri":"Textures/Image_31.png"
		},
		{
			"mimeType":"image/png",
			"name":"Image_30",
			"uri":"Textures/Image_30.png"
		},
		{
			"mimeType":"image/png",
			"name":"Image_35",
			"uri":"Textures/Image_35.png"
		},
		{
			"mimeType":"image/png",
			"name":"Image_34",
			"uri":"Textures/Image_34.png"
		},
		{
			"mimeType":"image/png",
			"name":"Image_33",
			"uri":"Textures/Image_33.png"
		},
		{
			"mimeType":"image/png",
			"name":"Image_36",
			"uri":"Textures/Image_36.png"
		},
		{
			"mimeType":"image/png",
			"name":"Image_39",
			"uri":"Textures/Image_39.png"
		},
		{
			"mimeType":"image/png",
			"name":"Image_38",
			"uri":"Textures/Image_38.png"
		},
		{
			"mimeType":"image/png",
			"name":"Image_37",
			"uri":"Textures/Image_37.png"
		},
		{
			"mimeType":"image/png",
			"name":"Image_42",
			"uri":"Textures/Image_42.png"
		},
		{
			"mimeType":"image/png",
			"name":"Image_41",
			"uri":"Textures/Image_41.png"
		},
		{
			"mimeType":"image/png",
			"name":"Image_40",
			"uri":"Textures/Image_40.png"
		},
		{
			"mimeType":"image/png",
			"name":"Image_44",
			"uri":"Textures/Image_44.png"
		},
		{
			"mimeType":"image/png",
			"name":"Image_43",
			"uri":"Textures/Image_43.png"
		},
		{
			"mimeType":"image/png",
			"name":"Image_46",
			"uri":"Textures/Image_46.png"
		},
		{
			"mimeType":"image/png",
			"name":"Image_45",
			"uri":"Textures/Image_45.png"
		},
		{
			"mimeType":"image/png",
			"name":"Image_49",
			"uri":"Textures/Image_49.png"
		},
		{
			"mimeType":"image/png",
			"name":"Image_48",
			"uri":"Textures/Image_48.png"
		},
		{
			"mimeType":"image/png",
			"name":"Image_47",
			"uri":"Textures/Image_47.png"
		},
		{
			"mimeType":"image/png",
			"name":"Image_51",
			"uri":"Textures/Image_51.png"
		},
		{
			"mimeType":"image/png",
			"name":"Image_50",
			"uri":"Textures/Image_50.png"
		},
		{
			"mimeType":"image/png",
			"name":"Image_53",
			"uri":"Textures/Image_53.png"
		},
		{
			"mimeType":"image/png",
			"name":"Image_52",
			"uri":"Textures/Image_52.png"
		},
		{
			"mimeType":"image/png",
			"name":"Image_56",
			"uri":"Textures/Image_56.png"
		},
		{
			"mimeType":"image/png",
			"name":"Image_55",
			"uri":"Textures/Image_55.png"
		},
		{
			"mimeType":"image/png",
			"name":"Image_54",
			"uri":"Textures/Image_54.png"
		},
		{
			"mimeType":"image/png",
			"name":"Image_59",
			"uri":"Textures/Image_59.png"
		},
		{
			"mimeType":"image/png",
			"name":"Image_58",
			"uri":"Textures/Image_58.png"
		},
		{
			"mimeType":"image/png",
			"name":"Image_57",
			"uri":"Textures/Image_57.png"
		},
		{
			"mimeType":"image/png",
			"name":"Image_62",
			"uri":"Textures/Image_62.png"
		},
		{
			"mimeType":"image/png",
			"name":"Image_61",
			"uri":"Textures/Image_61.png"
		},
		{
			"mimeType":"image/png",
			"name":"Image_60",
			"uri":"Textures/Image_60.png"
		},
		{
			"mimeType":"image/png",
			"name":"Image_65",
			"uri":"Textures/Image_65.png"
		},
		{
			"mimeType":"image/png",
			"name":"Image_64",
			"uri":"Textures/Image_64.png"
		},
		{
			"mimeType":"image/png",
			"name":"Image_63",
			"uri":"Textures/Image_63.png"
		},
		{
			"mimeType":"image/png",
			"name":"Image_68",
			"uri":"Textures/Image_68.png"
		},
		{
			"mimeType":"image/png",
			"name":"Image_67",
			"uri":"Textures/Image_67.png"
		},
		{
			"mimeType":"image/png",
			"name":"Image_66",
			"uri":"Textures/Image_66.png"
		}
	],
	"accessors":[
		{
			"bufferView":0,
			"componentType":5126,
			"count":24162,
			"max":[
				551.2263793945312,
				225.1189422607422,
				266.4532775878906
			],
			"min":[
				-680.2642211914062,
				-28.04960060119629,
				-341.1361999511719
			],
			"type":"VEC3"
		},
		{
			"bufferView":1,
			"componentType":5126,
			"count":24162,
			"type":"VEC3"
		},
		{
			"bufferView":2,
			"componentType":5126,
			"count":24162,
			"type":"VEC2"
		},
		{
			"bufferView":3,
			"componentType":5123,
			"count":94308,
			"type":"SCALAR"
		},
		{
			"bufferView":4,
			"componentType":5126,
			"count":3932,
			"max":[
				861.8841552734375,
				73.1251220703125,
				187.85267639160156
			],
			"min":[
				-992.9603881835938,
				42.31909942626953,
				-261.83648681640625
			],
			"type":"VEC3"
		},
		{
			"bufferView":5,
			"componentType":5126,
			"count":3932,
			"type":"VEC3"
		},
		{
			"bufferView":6,
			"componentType":5126,
			"count":3932,
			"type":"VEC2"
		},
		{
			"bufferView":7,
			"componentType":5123,
			"count":10416,
			"type":"SCALAR"
		},
		{
			"bufferView":8,
			"componentType":5126,
			"count":9848,
			"max":[
				859.2958984375,
				56.199501037597656,
				179.31082153320312
			],
			"min":[
				-990.7388916015625,
				-4.030700206756592,
				-251.64309692382812
			],
			"type":"VEC3"
		},
		{
			"bufferView":9,
			"componentType":5126,
			"count":9848,
			"type":"VEC3"
		},
		{
			"bufferView":10,
			"componentType":5126,
			"count":9848,
			"type":"VEC2"
		},
		{
			"bufferView":11,
			"componentType":5123,
			"count":53064,
			"type":"SCALAR"
		},
		{
			"bufferView":12,
			"componentType":5126,
			"count":2259,
			"max":[
				1299.8734130859375,
				758.5531005859375,
				88.62451171875
			],
			"min":[
				-1428.27490234375,
				40.818599700927734,
				-163.38650512695312
			],
			"type":"VEC3"
		},
		{
			"bufferView":13,
			"componentType":5126,
			"count":2259,
			"type":"VEC3"
		},
		{
			"bufferView":14,
			"componentType":5126,
			"count":2259,
			"type":"VEC2"
		},
		{
			"bufferView":15,
			"componentType":5123,
			"count":12258,
			"type":"SCALAR"
		},
		{
			"bufferView":16,
			"componentType":5126,
			"count":1095,
			"max":[
				1746.69287109375,
				1347.2171630859375,
				1039.806640625
			],
			"min":[
				-1866.98291015625,
				-126.44249725341797,
				-1139.030517578125
			],
			"type":"VEC3"
		},
		{
			"bufferView":17,
			"componentType":5126,
			"count":1095,
			"type":"VEC3"
		},
		{
			"bufferView":18,
			"componentType":5126,
			"count":1095,
			"type":"VEC2"
		},
		{
			"bufferView":19,
			"componentType":5123,
			"count":2388,
			"type":"SCALAR"
		},
		{
			"bufferView":20,
			"componentType":5126,
			"count":11293,
			"max":[
				921.935546875,
				1275.01123046875,
				245.7742919921875
			],
			"min":[
				-1052.875732421875,
				211.39549255371094,
				-318.1059875488281
			],
			"type":"VEC3"
		},
		{
			"bufferView":21,
			"componentType":5126,
			"count":11293,
			"type":"VEC3"
		},
		{
			"bufferView":22,
			"componentType":5126,
			"count":11293,
			"type":"VEC2"
		},
		{
			"bufferView":23,
			"componentType":5123,
			"count":30504,
			"type":"SCALAR"
		},
		{
			"bufferView":24,
			"componentType":5126,
			"count":5044,
			"max":[
				1302.20166015625,
				1263.927978515625,
				574.8670654296875
			],
			"min":[
				-1429.452392578125,
				215.80360412597656,
				-645.1483154296875
			],
			"type":"VEC3"
		},
		{
			"bufferView":25,
			"componentType":5126,
			"count":5044,
			"type":"VEC3"
		},
		{
			"bufferView":26,
			"componentType":5126,
			"count":5044,
			"type":"VEC2"
		},
		{
			"bufferView":27,
			"componentType":5123,
			"count":17628,
			"type":"SCALAR"
		},
		{
			"bufferView":28,
			"componentType":5126,
			"count":3532,
			"max":[
				925.603759765625,
				221.0132293701172,
				246.64349365234375
			],
			"min":[
				-1057.22021484375,
				-2.460700035095215,
				-316.86920166015625
			],
			"type":"VEC3"
		},
		{
			"bufferView":29,
			"componentType":5126,
			"count":3532,
			"type":"VEC3"
		},
		{
			"bufferView":30,
			"componentType":5126,
			"count":3532,
			"type":"VEC2"
		},
		{
			"bufferView":31,
			"componentType":5123,
			"count":8448,
			"type":"SCALAR"
		},
		{
			"bufferView":32,
			"componentType":5126,
			"count":23,
			"max":[
				1302.220947265625,
				415.5303039550781,
				574.1619873046875
			],
			"min":[
				-1432.224365234375,
				-2.506200075149536,
				-645.4310302734375
			],
			"type":"VEC3"
		},
		{
			"bufferView":33,
			"componentType":5126,
			"count":23,
			"type":"VEC3"
		},
		{
			"bufferView":34,
			"componentType":5126,
			"count":23,
			"type":"VEC2"
		},
		{
			"bufferView":35,
			"componentType":5123,
			"count":63,
			"type":"SCALAR"
		},
		{
			"bufferView":36,
			"componentType":5126,
			"count":12416,
			"max":[
				1303.27197265625,
				695.3961181640625,
				575.7418212890625
			],
			"min":[
				-1430.30517578125,
				182.6522979736328,
				-646.9678955078125
			],
			"type":"VEC3"
		},
		{
			"bufferView":37,
			"componentType":5126,
			"count":12416,
			"type":"VEC3"
		},
		{
			"bufferView":38,
			"componentType":5126,
			"count":12416,
			"type":"VEC2"
		},
		{
			"bufferView":39,
			"componentType":5123,
			"count":21264,
			"type":"SCALAR"
		},
		{
			"bufferView":40,
			"componentType":5126,
			"count":1154,
			"max":[
				1315.5244140625,
				716.838623046875,
				605.0021362304688
			],
			"min":[
				-509.68328857421875,
				-2.2155001163482666,
				-651.5385131835938
			],
			"type":"VEC3"
		},
		{
			"bufferView":41,
			"componentType":5126,
			"count":1154,
			"type":"VEC3"
		},
		{
			"bufferView":42,
			"componentType":5126,
			"count":1154,
			"type":"VEC2"
		},
		{
			"bufferView":43,
			"componentType":5123,
			"count":2640,
			"type":"SCALAR"
		},
		{
			"bufferView":44,
			"componentType":5126,
			"count":23354,
			"max":[
				907.406982421875,
				699.56005859375,
				234.763671875
			],
			"min":[
				-1037.651611328125,
				506.6332092285156,
				-309.70550537109375
			],
			"type":"VEC3"
		},
		{
			"bufferView":45,
			"componentType":5126,
			"count":23354,
			"type":"VEC3"
		},
		{
			"bufferView":46,
			"componentType":5126,
			"count":23354,
			"type":"VEC2"
		},
		{
			"bufferView":47,
			"componentType":5123,
			"count":69624,
			"type":"SCALAR"
		},
		{
			"bufferView":48,
			"componentType":5126,
			"count":36,
			"max":[
				-8.262901306152344,
				348.19464111328125,
				575.5036010742188
			],
			"min":[
				-119.40730285644531,
				256.7309875488281,
				568.6583862304688
			],
			"type":"VEC3"
		},
		{
			"bufferView":49,
			"componentType":5126,
			"count":36,
			"type":"VEC3"
		},
		{
			"bufferView":50,
			"componentType":5126,
			"count":36,
			"type":"VEC2"
		},
		{
			"bufferView":51,
			"componentType":5123,
			"count":54,
			"type":"SCALAR"
		},
		{
			"bufferView":52,
			"componentType":5126,
			"count":12292,
			"max":[
				830.2938842773438,
				886.1531372070312,
				209.11309814453125
			],
			"min":[
				-958.6978149414062,
				274.9595947265625,
				-289.70361328125
			],
			"type":"VEC3"
		},
		{
			"bufferView":53,
			"componentType":5126,
			"count":12292,
			"type":"VEC3"
		},
		{
			"bufferView":54,
			"componentType":5126,
			"count":12292,
			"type":"VEC2"
		},
		{
			"bufferView":55,
			"componentType":5123,
			"count":49488,
			"type":"SCALAR"
		},
		{
			"bufferView":56,
			"componentType":5126,
			"count":9819,
			"max":[
				651.9561767578125,
				520.5904541015625,
				252.27932739257812
			],
			"min":[
				-783.794189453125,
				339.4429931640625,
				-324.5262145996094
			],
			"type":"VEC3"
		},
		{
			"bufferView":57,
			"componentType":5126,
			"count":9819,
			"type":"VEC3"
		},
		{
			"bufferView":58,
			"componentType":5126,
			"count":9819,
			"type":"VEC2"
		},
		{
			"bufferView":59,
			"componentType":5123,
			"count":49536,
			"type":"SCALAR"
		},
		{
			"bufferView":60,
			"componentType":5126,
			"count":9812,
			"max":[
				648.8516845703125,
				520.5904541015625,
				252.27919006347656
			],
			"min":[
				-786.898681640625,
				339.4429931640625,
				-324.5262145996094
			],
			"type":"VEC3"
		},
		{
			"bufferView":61,
			"componentType":5126,
			"count":9812,
			"type":"VEC3"
		},
		{
			"bufferView":62,
			"componentType":5126,
			"count":9812,
			"type":"VEC2"
		},
		{
			"bufferView":63,
			"componentType":5123,
			"count":49536,
			"type":"SCALAR"
		},
		{
			"bufferView":64,
			"componentType":5126,
			"count":6546,
			"max":[
				283.3501892089844,
				520.5904541015625,
				252.27920532226562
			],
			"min":[
				-418.2926025390625,
				339.4429931640625,
				-324.5262145996094
			],
			"type":"VEC3"
		},
		{
			"bufferView":65,
			"componentType":5126,
			"count":6546,
			"type":"VEC3"
		},
		{
			"bufferView":66,
			"componentType":5126,
			"count":6546,
			"type":"VEC2"
		},
		{
			"bufferView":67,
			"componentType":5123,
			"count":33024,
			"type":"SCALAR"
		},
		{
			"bufferView":68,
			"componentType":5126,
			"count":7757,
			"max":[
				820.1740112304688,
				283.6856689453125,
				213.48768615722656
			],
			"min":[
				-577.6201782226562,
				-0.30889999866485596,
				-295.25439453125
			],
			"type":"VEC3"
		},
		{
			"bufferView":69,
			"componentType":5126,
			"count":7757,
			"type":"VEC3"
		},
		{
			"bufferView":70,
			"componentType":5126,
			"count":7757,
			"type":"VEC2"
		},
		{
			"bufferView":71,
			"componentType":5123,
			"count":43008,
			"type":"SCALAR"
		},
		{
			"bufferView":72,
			"componentType":5126,
			"count":10272,
			"max":[
				820.1740112304688,
				283.6858215332031,
				213.48768615722656
			],
			"min":[
				-946.2379150390625,
				-0.30889999866485596,
				-295.25439453125
			],
			"type":"VEC3"
		},
		{
			"bufferView":73,
			"componentType":5126,
			"count":10272,
			"type":"VEC3"
		},
		{
			"bufferView":74,
			"componentType":5126,
			"count":10272,
			"type":"VEC2"
		},
		{
			"bufferView":75,
			"componentType":5123,
			"count":56832,
			"type":"SCALAR"
		},
		{
			"bufferView":76,
			"componentType":5126,
			"count":7757,
			"max":[
				448.0338134765625,
				283.6858215332031,
				213.48768615722656
			],
			"min":[
				-946.2379150390625,
				-0.30889999866485596,
				-289.25689697265625
			],
			"type":"VEC3"
		},
		{
			"bufferView":77,
			"componentType":5126,
			"count":7757,
			"type":"VEC3"
		},
		{
			"bufferView":78,
			"componentType":5126,
			"count":7757,
			"type":"VEC2"
		},
		{
			"bufferView":79,
			"componentType":5126,
			"count":64,
			"max":[
				513.3611450195312,
				214.3549041748047,
				145.12820434570312
			],
			"min":[
				-644.93310546875,
				133.72129821777344,
				-221.48719787597656
			],
			"type":"VEC3"
		},
		{
			"bufferView":80,
			"componentType":5126,
			"count":64,
			"type":"VEC3"
		},
		{
			"bufferView":81,
			"componentType":5126,
			"count":64,
			"type":"VEC2"
		},
		{
			"bufferView":82,
			"componentType":5123,
			"count":96,
			"type":"SCALAR"
		},
		{
			"bufferView":83,
			"componentType":5126,
			"count":11828,
			"max":[
				522.6100463867188,
				216.9512939453125,
				170.47421264648438
			],
			"min":[
				-654.1837768554688,
				98.67289733886719,
				-246.83450317382812
			],
			"type":"VEC3"
		},
		{
			"bufferView":84,
			"componentType":5126,
			"count":11828,
			"type":"VEC3"
		},
		{
			"bufferView":85,
			"componentType":5126,
			"count":11828,
			"type":"VEC2"
		},
		{
			"bufferView":86,
			"componentType":5123,
			"count":59484,
			"type":"SCALAR"
		},
		{
			"bufferView":87,
			"componentType":5126,
			"count":5308,
			"max":[
				1194.17041015625,
				133.08175659179688,
				478.23052978515625
			],
			"min":[
				-1276.67333984375,
				-0.6934000253677368,
				-523.4995727539062
			],
			"type":"VEC3"
		},
		{
			"bufferView":88,
			"componentType":5126,
			"count":5308,
			"type":"VEC3"
		},
		{
			"bufferView":89,
			"componentType":5126,
			"count":5308,
			"type":"VEC2"
		},
		{
			"bufferView":90,
			"componentType":5123,
			"count":27552,
			"type":"SCALAR"
		},
		{
			"bufferView":91,
			"componentType":5126,
			"count":1732,
			"max":[
				1299.0267333984375,
				264.7611999511719,
				42.85694122314453
			],
			"min":[
				-1427.434326171875,
				79.90480041503906,
				-114.69149780273438
			],
			"type":"VEC3"
		},
		{
			"bufferView":92,
			"componentType":5126,
			"count":1732,
			"type":"VEC3"
		},
		{
			"bufferView":93,
			"componentType":5126,
			"count":1732,
			"type":"VEC2"
		},
		{
			"bufferView":94,
			"componentType":5123,
			"count":9126,
			"type":"SCALAR"
		},
		{
			"bufferView":95,
			"componentType":5126,
			"count":11954,
			"max":[
				1799.9080810546875,
				1429.5020751953125,
				1105.394287109375
			],
			"min":[
				-1920.9459228515625,
				1280.513427734375,
				-1182.80712890625
			],
			"type":"VEC3"
		},
		{
			"bufferView":96,
			"componentType":5126,
			"count":11954,
			"type":"VEC3"
		},
		{
			"bufferView":97,
			"componentType":5126,
			"count":11954,
			"type":"VEC2"
		},
		{
			"bufferView":98,
			"componentType":5123,
			"count":43452,
			"type":"SCALAR"
		}
	],
	"bufferViews":[
		{
			"buffer":0,
			"byteLength":289944,
			"byteOffset":0,
			"target":34962
		},
		{
			"buffer":0,
			"byteLength":289944,
			"byteOffset":289944,
			"target":34962
		},
		{
			"buffer":0,
			"byteLength":193296,
			"byteOffset":579888,
			"target":34962
		},
		{
			"buffer":0,
			"byteLength":188616,
			"byteOffset":773184,
			"target":34963
		},
		{
			"buffer":0,
			"byteLength":47184,
			"byteOffset":961800,
			"target":34962
		},
		{
			"buffer":0,
			"byteLength":47184,
			"byteOffset":1008984,
			"target":34962
		},
		{
			"buffer":0,
			"byteLength":31456,
			"byteOffset":1056168,
			"target":34962
		},
		{
			"buffer":0,
			"byteLength":20832,
			"byteOffset":1087624,
			"target":34963
		},
		{
			"buffer":0,
			"byteLength":118176,
			"byteOffset":1108456,
			"target":34962
		},
		{
			"buffer":0,
			"byteLength":118176,
			"byteOffset":1226632,
			"target":34962
		},
		{
			"buffer":0,
			"byteLength":78784,
			"byteOffset":1344808,
			"target":34962
		},
		{
			"buffer":0,
			"byteLength":106128,
			"byteOffset":1423592,
			"target":34963
		},
		{
			"buffer":0,
			"byteLength":27108,
			"byteOffset":1529720,
			"target":34962
		},
		{
			"buffer":0,
			"byteLength":27108,
			"byteOffset":1556828,
			"target":34962
		},
		{
			"buffer":0,
			"byteLength":18072,
			"byteOffset":1583936,
			"target":34962
		},
		{
			"buffer":0,
			"byteLength":24516,
			"byteOffset":1602008,
			"target":34963
		},
		{
			"buffer":0,
			"byteLength":13140,
			"byteOffset":1626524,
			"target":34962
		},
		{
			"buffer":0,
			"byteLength":13140,
			"byteOffset":1639664,
			"target":34962
		},
		{
			"buffer":0,
			"byteLength":8760,
			"byteOffset":1652804,
			"target":34962
		},
		{
			"buffer":0,
			"byteLength":4776,
			"byteOffset":1661564,
			"target":34963
		},
		{
			"buffer":0,
			"byteLength":135516,
			"byteOffset":1666340,
			"target":34962
		},
		{
			"buffer":0,
			"byteLength":135516,
			"byteOffset":1801856,
			"target":34962
		},
		{
			"buffer":0,
			"byteLength":90344,
			"byteOffset":1937372,
			"target":34962
		},
		{
			"buffer":0,
			"byteLength":61008,
			"byteOffset":2027716,
			"target":34963
		},
		{
			"buffer":0,
			"byteLength":60528,
			"byteOffset":2088724,
			"target":34962
		},
		{
			"buffer":0,
			"byteLength":60528,
			"byteOffset":2149252,
			"target":34962
		},
		{
			"buffer":0,
			"byteLength":40352,
			"byteOffset":2209780,
			"target":34962
		},
		{
			"buffer":0,
			"byteLength":35256,
			"byteOffset":2250132,
			"target":34963
		},
		{
			"buffer":0,
			"byteLength":42384,
			"byteOffset":2285388,
			"target":34962
		},
		{
			"buffer":0,
			"byteLength":42384,
			"byteOffset":2327772,
			"target":34962
		},
		{
			"buffer":0,
			"byteLength":28256,
			"byteOffset":2370156,
			"target":34962
		},
		{
			"buffer":0,
			"byteLength":16896,
			"byteOffset":2398412,
			"target":34963
		},
		{
			"buffer":0,
			"byteLength":276,
			"byteOffset":2415308,
			"target":34962
		},
		{
			"buffer":0,
			"byteLength":276,
			"byteOffset":2415584,
			"target":34962
		},
		{
			"buffer":0,
			"byteLength":184,
			"byteOffset":2415860,
			"target":34962
		},
		{
			"buffer":0,
			"byteLength":126,
			"byteOffset":2416044,
			"target":34963
		},
		{
			"buffer":0,
			"byteLength":148992,
			"byteOffset":2416172,
			"target":34962
		},
		{
			"buffer":0,
			"byteLength":148992,
			"byteOffset":2565164,
			"target":34962
		},
		{
			"buffer":0,
			"byteLength":99328,
			"byteOffset":2714156,
			"target":34962
		},
		{
			"buffer":0,
			"byteLength":42528,
			"byteOffset":2813484,
			"target":34963
		},
		{
			"buffer":0,
			"byteLength":13848,
			"byteOffset":2856012,
			"target":34962
		},
		{
			"buffer":0,
			"byteLength":13848,
			"byteOffset":2869860,
			"target":34962
		},
		{
			"buffer":0,
			"byteLength":9232,
			"byteOffset":2883708,
			"target":34962
		},
		{
			"buffer":0,
			"byteLength":5280,
			"byteOffset":2892940,
			"target":34963
		},
		{
			"buffer":0,
			"byteLength":280248,
			"byteOffset":2898220,
			"target":34962
		},
		{
			"buffer":0,
			"byteLength":280248,
			"byteOffset":3178468,
			"target":34962
		},
		{
			"buffer":0,
			"byteLength":186832,
			"byteOffset":3458716,
			"target":34962
		},
		{
			"buffer":0,
			"byteLength":139248,
			"byteOffset":3645548,
			"target":34963
		},
		{
			"buffer":0,
			"byteLength":432,
			"byteOffset":3784796,
			"target":34962
		},
		{
			"buffer":0,
			"byteLength":432,
			"byteOffset":3785228,
			"target":34962
		},
		{
			"buffer":0,
			"byteLength":288,
			"byteOffset":3785660,
			"target":34962
		},
		{
			"buffer":0,
			"byteLength":108,
			"byteOffset":3785948,
			"target":34963
		},
		{
			"buffer":0,
			"byteLength":147504,
			"byteOffset":3786056,
			"target":34962
		},
		{
			"buffer":0,
			"byteLength":147504,
			"byteOffset":3933560,
			"target":34962
		},
		{
			"buffer":0,
			"byteLength":98336,
			"byteOffset":4081064,
			"target":34962
		},
		{
			"buffer":0,
			"byteLength":98976,
			"byteOffset":4179400,
			"target":34963
		},
		{
			"buffer":0,
			"byteLength":117828,
			"byteOffset":4278376,
			"target":34962
		},
		{
			"buffer":0,
			"byteLength":117828,
			"byteOffset":4396204,
			"target":34962
		},
		{
			"buffer":0,
			"byteLength":78552,
			"byteOffset":4514032,
			"target":34962
		},
		{
			"buffer":0,
			"byteLength":99072,
			"byteOffset":4592584,
			"target":34963
		},
		{
			"buffer":0,
			"byteLength":117744,
			"byteOffset":4691656,
			"target":34962
		},
		{
			"buffer":0,
			"byteLength":117744,
			"byteOffset":4809400,
			"target":34962
		},
		{
			"buffer":0,
			"byteLength":78496,
			"byteOffset":4927144,
			"target":34962
		},
		{
			"buffer":0,
			"byteLength":99072,
			"byteOffset":5005640,
			"target":34963
		},
		{
			"buffer":0,
			"byteLength":78552,
			"byteOffset":5104712,
			"target":34962
		},
		{
			"buffer":0,
			"byteLength":78552,
			"byteOffset":5183264,
			"target":34962
		},
		{
			"buffer":0,
			"byteLength":52368,
			"byteOffset":5261816,
			"target":34962
		},
		{
			"buffer":0,
			"byteLength":66048,
			"byteOffset":5314184,
			"target":34963
		},
		{
			"buffer":0,
			"byteLength":93084,
			"byteOffset":5380232,
			"target":34962
		},
		{
			"buffer":0,
			"byteLength":93084,
			"byteOffset":5473316,
			"target":34962
		},
		{
			"buffer":0,
			"byteLength":62056,
			"byteOffset":5566400,
			"target":34962
		},
		{
			"buffer":0,
			"byteLength":86016,
			"byteOffset":5628456,
			"target":34963
		},
		{
			"buffer":0,
			"byteLength":123264,
			"byteOffset":5714472,
			"target":34962
		},
		{
			"buffer":0,
			"byteLength":123264,
			"byteOffset":5837736,
			"target":34962
		},
		{
			"buffer":0,
			"byteLength":82176,
			"byteOffset":5961000,
			"target":34962
		},
		{
			"buffer":0,
			"byteLength":113664,
			"byteOffset":6043176,
			"target":34963
		},
		{
			"buffer":0,
			"byteLength":93084,
			"byteOffset":6156840,
			"target":34962
		},
		{
			"buffer":0,
			"byteLength":93084,
			"byteOffset":6249924,
			"target":34962
		},
		{
			"buffer":0,
			"byteLength":62056,
			"byteOffset":6343008,
			"target":34962
		},
		{
			"buffer":0,
			"byteLength":768,
			"byteOffset":6405064,
			"target":34962
		},
		{
			"buffer":0,
			"byteLength":768,
			"byteOffset":6405832,
			"target":34962
		},
		{
			"buffer":0,
			"byteLength":512,
			"byteOffset":6406600,
			"target":34962
		},
		{
			"buffer":0,
			"byteLength":192,
			"byteOffset":6407112,
			"target":34963
		},
		{
			"buffer":0,
			"byteLength":141936,
			"byteOffset":6407304,
			"target":34962
		},
		{
			"buffer":0,
			"byteLength":141936,
			"byteOffset":6549240,
			"target":34962
		},
		{
			"buffer":0,
			"byteLength":94624,
			"byteOffset":6691176,
			"target":34962
		},
		{
			"buffer":0,
			"byteLength":118968,
			"byteOffset":6785800,
			"target":34963
		},
		{
			"buffer":0,
			"byteLength":63696,
			"byteOffset":6904768,
			"target":34962
		},
		{
			"buffer":0,
			"byteLength":63696,
			"byteOffset":6968464,
			"target":34962
		},
		{
			"buffer":0,
			"byteLength":42464,
			"byteOffset":7032160,
			"target":34962
		},
		{
			"buffer":0,
			"byteLength":55104,
			"byteOffset":7074624,
			"target":34963
		},
		{
			"buffer":0,
			"byteLength":20784,
			"byteOffset":7129728,
			"target":34962
		},
		{
			"buffer":0,
			"byteLength":20784,
			"byteOffset":7150512,
			"target":34962
		},
		{
			"buffer":0,
			"byteLength":13856,
			"byteOffset":7171296,
			"target":34962
		},
		{
			"buffer":0,
			"byteLength":18252,
			"byteOffset":7185152,
			"target":34963
		},
		{
			"buffer":0,
			"byteLength":143448,
			"byteOffset":7203404,
			"target":34962
		},
		{
			"buffer":0,
			"byteLength":143448,
			"byteOffset":7346852,
			"target":34962
		},
		{
			"buffer":0,
			"byteLength":95632,
			"byteOffset":7490300,
			"target":34962
		},
		{
			"buffer":0,
			"byteLength":86904,
			"byteOffset":7585932,
			"target":34963
		}
	],
	"samplers":[
		{
			"magFilter":9729,
			"minFilter":9987
		}
	],
	"buffers":[
		{
			"byteLength":7672836,
			"uri":"sponza.bin"
		}
	]
}
