{
  "accessors": [
    {
      "bufferView": 2,
      "componentType": 5126,
      "count": 1640,
      "max": [
        287.5626525878906,
        44.49371337890625,
        43.281578063964844
      ],
      "min": [
        216.5218505859375,
        -1.9911543130874634,
        -29.24949836730957
      ],
      "type": "VEC3"
    },
    {
      "bufferView": 2,
      "byteOffset": 19680,
      "componentType": 5126,
      "count": 1640,
      "max": [
        0.997970700263977,
        0.9992947578430176,
        0.9997296333312988
      ],
      "min": [
        -0.9965418577194214,
        -0.5276660323143005,
        -0.9999600052833557
      ],
      "type": "VEC3"
    },
    {
      "bufferView": 3,
      "componentType": 5126,
      "count": 1640,
      "max": [
        0.9999611377716064,
        0.38598889112472534,
        0.9993823170661926,
        1.0
      ],
      "min": [
        -0.9995091557502747,
        -0.7258453369140625,
        -0.9997850656509399,
        -1.0
      ],
      "type": "VEC4"
    },
    {
      "bufferView": 1,
      "componentType": 5126,
      "count": 1640,
      "max": [
        1.0,
        1.0
      ],
      "min": [
        0.0,
        0.0
      ],
      "type": "VEC2"
    },
    {
      "bufferView": 1,
      "byteOffset": 13120,
      "componentType": 5126,
      "count": 1640,
      "max": [
        1.0,
        1.0
      ],
      "min": [
        0.0,
        0.0
      ],
      "type": "VEC2"
    },
    {
      "bufferView": 1,
      "byteOffset": 26240,
      "componentType": 5126,
      "count": 1640,
      "max": [
        1.0,
        0.9996291399002075
      ],
      "min": [
        1.0,
        0.8503709435462952
      ],
      "type": "VEC2"
    },
    {
      "bufferView": 1,
      "byteOffset": 39360,
      "componentType": 5126,
      "count": 1640,
      "max": [
        1.0,
        1.0
      ],
      "min": [
        0.0,
        0.0
      ],
      "type": "VEC2"
    },
    {
      "bufferView": 0,
      "componentType": 5125,
      "count": 4518,
      "type": "SCALAR"
    },
    {
      "bufferView": 2,
      "byteOffset": 39360,
      "componentType": 5126,
      "count": 1910,
      "max": [
        284.3413391113281,
        41.779815673828125,
        45.3507080078125
      ],
      "min": [
        233.21031188964844,
        0.07479678094387054,
        -11.186407089233398
      ],
      "type": "VEC3"
    },
    {
      "bufferView": 2,
      "byteOffset": 62280,
      "componentType": 5126,
      "count": 1910,
      "max": [
        0.9991430044174194,
        0.967885434627533,
        0.9998250007629395
      ],
      "min": [
        -0.9977261424064636,
        -0.9666022658348083,
        -0.9995880126953125
      ],
      "type": "VEC3"
    },
    {
      "bufferView": 3,
      "byteOffset": 26240,
      "componentType": 5126,
      "count": 1910,
      "max": [
        0.999941349029541,
        0.5492642521858215,
        0.998796284198761,
        1.0
      ],
      "min": [
        -0.9999960064888,
        -0.4455423653125763,
        -0.9999179840087891,
        -1.0
      ],
      "type": "VEC4"
    },
    {
      "bufferView": 1,
      "byteOffset": 52480,
      "componentType": 5126,
      "count": 1910,
      "max": [
        1.0,
        1.0
      ],
      "min": [
        0.0,
        0.0
      ],
      "type": "VEC2"
    },
    {
      "bufferView": 1,
      "byteOffset": 67760,
      "componentType": 5126,
      "count": 1910,
      "max": [
        1.0,
        1.0
      ],
      "min": [
        0.0,
        0.0
      ],
      "type": "VEC2"
    },
    {
      "bufferView": 1,
      "byteOffset": 83040,
      "componentType": 5126,
      "count": 1910,
      "max": [
        1.0,
        0.9996291399002075
      ],
      "min": [
        1.0,
        0.8503709435462952
      ],
      "type": "VEC2"
    },
    {
      "bufferView": 1,
      "byteOffset": 98320,
      "componentType": 5126,
      "count": 1910,
      "max": [
        1.0,
        1.0
      ],
      "min": [
        0.0,
        0.0
      ],
      "type": "VEC2"
    },
    {
      "bufferView": 0,
      "byteOffset": 18072,
      "componentType": 5125,
      "count": 5220,
      "type": "SCALAR"
    },
    {
      "bufferView": 2,
      "byteOffset": 85200,
      "componentType": 5126,
      "count": 3676,
      "max": [
        283.4421081542969,
        58.715755462646484,
        47.84349060058594
      ],
      "min": [
        218.47640991210938,
        0.5390047430992126,
        -19.808908462524414
      ],
      "type": "VEC3"
    },
    {
      "bufferView": 2,
      "byteOffset": 129312,
      "componentType": 5126,
      "count": 3676,
      "max": [
        0.9998053908348083,
        0.9246301054954529,
        0.9998509287834167
      ],
      "min": [
        -0.9999825954437256,
        -0.5586607456207275,
        -0.9992639422416687
      ],
      "type": "VEC3"
    },
    {
      "bufferView": 3,
      "byteOffset": 56800,
      "componentType": 5126,
      "count": 3676,
      "max": [
        0.999879002571106,
        0.5959419012069702,
        0.9999858736991882,
        1.0
      ],
      "min": [
        -0.9999401569366455,
        -0.4625142812728882,
        -0.9997861981391907,
        -1.0
      ],
      "type": "VEC4"
    },
    {
      "bufferView": 1,
      "byteOffset": 113600,
      "componentType": 5126,
      "count": 3676,
      "max": [
        1.0,
        1.0
      ],
      "min": [
        0.0,
        0.0
      ],
      "type": "VEC2"
    },
    {
      "bufferView": 1,
      "byteOffset": 143008,
      "componentType": 5126,
      "count": 3676,
      "max": [
        1.0,
        1.0
      ],
      "min": [
        0.0,
        0.0
      ],
      "type": "VEC2"
    },
    {
      "bufferView": 1,
      "byteOffset": 172416,
      "componentType": 5126,
      "count": 3676,
      "max": [
        1.0,
        0.9996291399002075
      ],
      "min": [
        1.0,
        0.8503709435462952
      ],
      "type": "VEC2"
    },
    {
      "bufferView": 1,
      "byteOffset": 201824,
      "componentType": 5126,
      "count": 3676,
      "max": [
        1.0,
        1.0
      ],
      "min": [
        0.0,
        0.0
      ],
      "type": "VEC2"
    },
    {
      "bufferView": 0,
      "byteOffset": 38952,
      "componentType": 5125,
      "count": 10332,
      "type": "SCALAR"
    },
    {
      "bufferView": 2,
      "byteOffset": 173424,
      "componentType": 5126,
      "count": 6320,
      "max": [
        171.3315887451172,
        74.70793151855469,
        189.54672241210938
      ],
      "min": [
        -157.19515991210938,
        0.4424647092819214,
        -140.57772827148438
      ],
      "type": "VEC3"
    },
    {
      "bufferView": 2,
      "byteOffset": 249264,
      "componentType": 5126,
      "count": 6320,
      "max": [
        0.9999611377716064,
        0.9937180280685425,
        0.9999591708183289
      ],
      "min": [
        -0.9997409582138062,
        -0.8104484677314758,
        -0.9996953010559082
      ],
      "type": "VEC3"
    },
    {
      "bufferView": 3,
      "byteOffset": 115616,
      "componentType": 5126,
      "count": 6320,
      "max": [
        0.9999926686286926,
        0.6521387696266174,
        0.999978244304657,
        1.0
      ],
      "min": [
        -0.9999682903289795,
        -0.5219703912734985,
        -0.9999757409095764,
        -1.0
      ],
      "type": "VEC4"
    },
    {
      "bufferView": 1,
      "byteOffset": 231232,
      "componentType": 5126,
      "count": 6320,
      "max": [
        1.0,
        1.0
      ],
      "min": [
        0.0,
        0.0
      ],
      "type": "VEC2"
    },
    {
      "bufferView": 1,
      "byteOffset": 281792,
      "componentType": 5126,
      "count": 6320,
      "max": [
        1.0,
        1.0
      ],
      "min": [
        0.0,
        0.0
      ],
      "type": "VEC2"
    },
    {
      "bufferView": 1,
      "byteOffset": 332352,
      "componentType": 5126,
      "count": 6320,
      "max": [
        1.0,
        0.9996291399002075
      ],
      "min": [
        1.0,
        0.8503709435462952
      ],
      "type": "VEC2"
    },
    {
      "bufferView": 1,
      "byteOffset": 382912,
      "componentType": 5126,
      "count": 6320,
      "max": [
        1.0,
        1.0
      ],
      "min": [
        0.0,
        0.0
      ],
      "type": "VEC2"
    },
    {
      "bufferView": 0,
      "byteOffset": 80280,
      "componentType": 5125,
      "count": 17766,
      "type": "SCALAR"
    },
    {
      "bufferView": 2,
      "byteOffset": 325104,
      "componentType": 5126,
      "count": 24692,
      "max": [
        191.2900390625,
        99.61711120605469,
        194.8538055419922
      ],
      "min": [
        -191.2900390625,
        0.6527888178825378,
        -162.36087036132813
      ],
      "type": "VEC3"
    },
    {
      "bufferView": 2,
      "byteOffset": 621408,
      "componentType": 5126,
      "count": 24692,
      "max": [
        0.9998986721038818,
        0.9313079714775085,
        0.9999653100967407
      ],
      "min": [
        -0.999995768070221,
        -0.8289409875869751,
        -0.9999898076057434
      ],
      "type": "VEC3"
    },
    {
      "bufferView": 3,
      "byteOffset": 216736,
      "componentType": 5126,
      "count": 24692,
      "max": [
        0.9999998807907104,
        0.6396962404251099,
        0.9999815225601196,
        1.0
      ],
      "min": [
        -0.9999894499778748,
        -0.5037609934806824,
        -0.9999960064888,
        -1.0
      ],
      "type": "VEC4"
    },
    {
      "bufferView": 1,
      "byteOffset": 433472,
      "componentType": 5126,
      "count": 24692,
      "max": [
        1.0,
        1.0
      ],
      "min": [
        0.0,
        0.0
      ],
      "type": "VEC2"
    },
    {
      "bufferView": 1,
      "byteOffset": 631008,
      "componentType": 5126,
      "count": 24692,
      "max": [
        1.0,
        1.0
      ],
      "min": [
        0.0,
        0.0
      ],
      "type": "VEC2"
    },
    {
      "bufferView": 1,
      "byteOffset": 828544,
      "componentType": 5126,
      "count": 24692,
      "max": [
        1.0,
        0.9996291399002075
      ],
      "min": [
        1.0,
        0.8503709435462952
      ],
      "type": "VEC2"
    },
    {
      "bufferView": 1,
      "byteOffset": 1026080,
      "componentType": 5126,
      "count": 24692,
      "max": [
        1.0,
        1.0
      ],
      "min": [
        0.0,
        0.0
      ],
      "type": "VEC2"
    },
    {
      "bufferView": 0,
      "byteOffset": 151344,
      "componentType": 5125,
      "count": 68076,
      "type": "SCALAR"
    },
    {
      "bufferView": 2,
      "byteOffset": 917712,
      "componentType": 5126,
      "count": 10336,
      "max": [
        149.07052612304688,
        56.21016311645508,
        175.65481567382813
      ],
      "min": [
        -143.45547485351563,
        0.2503430247306824,
        -118.98651885986328
      ],
      "type": "VEC3"
    },
    {
      "bufferView": 2,
      "byteOffset": 1041744,
      "componentType": 5126,
      "count": 10336,
      "max": [
        0.9996054768562317,
        0.9964419603347778,
        0.9997742772102356
      ],
      "min": [
        -0.999968409538269,
        -0.9734668731689453,
        -0.9999907612800598
      ],
      "type": "VEC3"
    },
    {
      "bufferView": 3,
      "byteOffset": 611808,
      "componentType": 5126,
      "count": 10336,
      "max": [
        0.9999852180480957,
        0.6461763381958008,
        0.9999922513961792,
        1.0
      ],
      "min": [
        -0.9998462796211243,
        -0.5410064458847046,
        -0.9998159408569336,
        -1.0
      ],
      "type": "VEC4"
    },
    {
      "bufferView": 1,
      "byteOffset": 1223616,
      "componentType": 5126,
      "count": 10336,
      "max": [
        1.0,
        1.0
      ],
      "min": [
        0.0,
        0.0
      ],
      "type": "VEC2"
    },
    {
      "bufferView": 1,
      "byteOffset": 1306304,
      "componentType": 5126,
      "count": 10336,
      "max": [
        1.0,
        1.0
      ],
      "min": [
        0.0,
        0.0
      ],
      "type": "VEC2"
    },
    {
      "bufferView": 1,
      "byteOffset": 1388992,
      "componentType": 5126,
      "count": 10336,
      "max": [
        1.0,
        0.9996291399002075
      ],
      "min": [
        1.0,
        0.8503709435462952
      ],
      "type": "VEC2"
    },
    {
      "bufferView": 1,
      "byteOffset": 1471680,
      "componentType": 5126,
      "count": 10336,
      "max": [
        1.0,
        1.0
      ],
      "min": [
        0.0,
        0.0
      ],
      "type": "VEC2"
    },
    {
      "bufferView": 0,
      "byteOffset": 423648,
      "componentType": 5125,
      "count": 29088,
      "type": "SCALAR"
    },
    {
      "bufferView": 2,
      "byteOffset": 1165776,
      "componentType": 5126,
      "count": 33864,
      "max": [
        182.82437133789063,
        82.15240478515625,
        190.95751953125
      ],
      "min": [
        -157.00039672851563,
        0.26437926292419434,
        -138.03363037109375
      ],
      "type": "VEC3"
    },
    {
      "bufferView": 2,
      "byteOffset": 1572144,
      "componentType": 5126,
      "count": 33864,
      "max": [
        1.0,
        0.9985654950141907,
        0.9999818205833435
      ],
      "min": [
        -0.9999969005584717,
        -0.9857053160667419,
        -0.9999750256538391
      ],
      "type": "VEC3"
    },
    {
      "bufferView": 3,
      "byteOffset": 777184,
      "componentType": 5126,
      "count": 33864,
      "max": [
        0.9999920129776001,
        0.5333932042121887,
        0.9999954700469971,
        1.0
      ],
      "min": [
        -0.9999992251396179,
        -0.6032863259315491,
        -0.9999898672103882,
        -1.0
      ],
      "type": "VEC4"
    },
    {
      "bufferView": 1,
      "byteOffset": 1554368,
      "componentType": 5126,
      "count": 33864,
      "max": [
        1.0,
        1.0
      ],
      "min": [
        0.0,
        0.0
      ],
      "type": "VEC2"
    },
    {
      "bufferView": 1,
      "byteOffset": 1825280,
      "componentType": 5126,
      "count": 33864,
      "max": [
        1.0,
        1.0
      ],
      "min": [
        0.0,
        0.0
      ],
      "type": "VEC2"
    },
    {
      "bufferView": 1,
      "byteOffset": 2096192,
      "componentType": 5126,
      "count": 33864,
      "max": [
        1.0,
        0.9996291399002075
      ],
      "min": [
        1.0,
        0.8503709435462952
      ],
      "type": "VEC2"
    },
    {
      "bufferView": 1,
      "byteOffset": 2367104,
      "componentType": 5126,
      "count": 33864,
      "max": [
        1.0,
        1.0
      ],
      "min": [
        0.0,
        0.0
      ],
      "type": "VEC2"
    },
    {
      "bufferView": 0,
      "byteOffset": 540000,
      "componentType": 5125,
      "count": 96192,
      "type": "SCALAR"
    },
    {
      "bufferView": 2,
      "byteOffset": 1978512,
      "componentType": 5126,
      "count": 3230,
      "max": [
        238.37686157226563,
        14.451647758483887,
        130.49462890625
      ],
      "min": [
        214.05282592773438,
        -0.5760633945465088,
        105.69624328613281
      ],
      "type": "VEC3"
    },
    {
      "bufferView": 2,
      "byteOffset": 2017272,
      "componentType": 5126,
      "count": 3230,
      "max": [
        0.9996122717857361,
        0.999671995639801,
        0.9985950589179993
      ],
      "min": [
        -0.9990367889404297,
        -0.9957109093666077,
        -0.9988080859184265
      ],
      "type": "VEC3"
    },
    {
      "bufferView": 3,
      "byteOffset": 1319008,
      "componentType": 5126,
      "count": 3230,
      "max": [
        0.9982774257659912,
        0.9995146989822388,
        0.9991061091423035,
        1.0
      ],
      "min": [
        -0.9986937642097473,
        -0.9992116689682007,
        -0.9939100742340088,
        -1.0
      ],
      "type": "VEC4"
    },
    {
      "bufferView": 1,
      "byteOffset": 2638016,
      "componentType": 5126,
      "count": 3230,
      "max": [
        1.0,
        1.0
      ],
      "min": [
        0.0,
        0.0
      ],
      "type": "VEC2"
    },
    {
      "bufferView": 1,
      "byteOffset": 2663856,
      "componentType": 5126,
      "count": 3230,
      "max": [
        1.0,
        1.0
      ],
      "min": [
        0.0,
        0.0
      ],
      "type": "VEC2"
    },
    {
      "bufferView": 1,
      "byteOffset": 2689696,
      "componentType": 5126,
      "count": 3230,
      "max": [
        1.0,
        0.9996291399002075
      ],
      "min": [
        1.0,
        0.8503709435462952
      ],
      "type": "VEC2"
    },
    {
      "bufferView": 1,
      "byteOffset": 2715536,
      "componentType": 5126,
      "count": 3230,
      "max": [
        1.0,
        1.0
      ],
      "min": [
        0.0,
        0.0
      ],
      "type": "VEC2"
    },
    {
      "bufferView": 0,
      "byteOffset": 924768,
      "componentType": 5125,
      "count": 9180,
      "type": "SCALAR"
    },
    {
      "bufferView": 2,
      "byteOffset": 2056032,
      "componentType": 5126,
      "count": 1212,
      "max": [
        235.6469268798828,
        17.452587127685547,
        132.43923950195313
      ],
      "min": [
        219.5013885498047,
        -0.5032362937927246,
        105.97465515136719
      ],
      "type": "VEC3"
    },
    {
      "bufferView": 2,
      "byteOffset": 2070576,
      "componentType": 5126,
      "count": 1212,
      "max": [
        0.9995946884155273,
        0.9983643293380737,
        0.9989862442016602
      ],
      "min": [
        -0.9969388246536255,
        -0.8886808753013611,
        -0.99909907579422
      ],
      "type": "VEC3"
    },
    {
      "bufferView": 3,
      "byteOffset": 1370688,
      "componentType": 5126,
      "count": 1212,
      "max": [
        0.9998800754547119,
        0.9961777925491333,
        0.9935427308082581,
        1.0
      ],
      "min": [
        -0.9991524815559387,
        -0.9975613951683044,
        -0.999147355556488,
        -1.0
      ],
      "type": "VEC4"
    },
    {
      "bufferView": 1,
      "byteOffset": 2741376,
      "componentType": 5126,
      "count": 1212,
      "max": [
        1.0,
        1.0
      ],
      "min": [
        0.0,
        0.0
      ],
      "type": "VEC2"
    },
    {
      "bufferView": 1,
      "byteOffset": 2751072,
      "componentType": 5126,
      "count": 1212,
      "max": [
        1.0,
        1.0
      ],
      "min": [
        0.0,
        0.0
      ],
      "type": "VEC2"
    },
    {
      "bufferView": 1,
      "byteOffset": 2760768,
      "componentType": 5126,
      "count": 1212,
      "max": [
        1.0,
        0.9996291399002075
      ],
      "min": [
        1.0,
        0.8503709435462952
      ],
      "type": "VEC2"
    },
    {
      "bufferView": 1,
      "byteOffset": 2770464,
      "componentType": 5126,
      "count": 1212,
      "max": [
        1.0,
        1.0
      ],
      "min": [
        0.0,
        0.0
      ],
      "type": "VEC2"
    },
    {
      "bufferView": 0,
      "byteOffset": 961488,
      "componentType": 5125,
      "count": 3354,
      "type": "SCALAR"
    }
  ],
  "asset": {
    "extras": {
      "author": "Cosmic_dust (https://sketchfab.com/Cosmic_dust)",
      "license": "CC-BY-4.0 (http://creativecommons.org/licenses/by/4.0/)",
      "source": "https://sketchfab.com/3d-models/grass-f2f2bddb2728483a9105c5f5114eb15e",
      "title": "Grass"
    },
    "generator": "Sketchfab-16.21.0",
    "version": "2.0"
  },
  "bufferViews": [
    {
      "buffer": 0,
      "byteLength": 974904,
      "name": "floatBufferViews",
      "target": 34963
    },
    {
      "buffer": 0,
      "byteLength": 2780160,
      "byteOffset": 974904,
      "byteStride": 8,
      "name": "floatBufferViews",
      "target": 34962
    },
    {
      "buffer": 0,
      "byteLength": 2085120,
      "byteOffset": 3755064,
      "byteStride": 12,
      "name": "floatBufferViews",
      "target": 34962
    },
    {
      "buffer": 0,
      "byteLength": 1390080,
      "byteOffset": 5840184,
      "byteStride": 16,
      "name": "floatBufferViews",
      "target": 34962
    }
  ],
  "buffers": [
    {
      "byteLength": 7230264,
      "uri": "scene.bin"
    }
  ],
  "extensionsRequired": [
    "KHR_materials_pbrSpecularGlossiness"
  ],
  "extensionsUsed": [
    "KHR_materials_pbrSpecularGlossiness"
  ],
  "images": [
    {
      "uri": "textures/Grass_Mat_diffuse.png"
    },
    {
      "uri": "textures/Grass_Mat_specularGlossiness.png"
    },
    {
      "uri": "textures/Grass_Mat_normal.png"
    },
    {
      "uri": "textures/Grass_Mat_occlusion.png"
    },
    {
      "uri": "textures/Grass2_Mat_diffuse.png"
    },
    {
      "uri": "textures/Grass2_Mat_specularGlossiness.png"
    },
    {
      "uri": "textures/Grass2_Mat_normal.png"
    },
    {
      "uri": "textures/Grass2_Mat_occlusion.png"
    },
    {
      "uri": "textures/Grass1_Mat_diffuse.png"
    },
    {
      "uri": "textures/Grass1_Mat_specularGlossiness.png"
    },
    {
      "uri": "textures/Grass1_Mat_normal.png"
    },
    {
      "uri": "textures/Grass1_Mat_occlusion.png"
    },
    {
      "uri": "textures/Grass3_Mat_diffuse.png"
    },
    {
      "uri": "textures/Grass3_Mat_specularGlossiness.png"
    },
    {
      "uri": "textures/Grass3_Mat_normal.png"
    },
    {
      "uri": "textures/Grass3_Mat_occlusion.png"
    }
  ],
  "materials": [
    {
      "alphaMode": "BLEND",
      "doubleSided": true,
      "extensions": {
        "KHR_materials_pbrSpecularGlossiness": {
          "diffuseFactor": [
            1.0,
            1.0,
            1.0,
            1.0
          ],
          "diffuseTexture": {
            "index": 0
          },
          "glossinessFactor": 1.0,
          "specularFactor": [
            0.0,
            0.0,
            0.0
          ],
          "specularGlossinessTexture": {
            "index": 1
          }
        }
      },
      "name": "Grass_Mat",
      "normalTexture": {
        "index": 2
      },
      "occlusionTexture": {
        "index": 3
      }
    },
    {
      "alphaMode": "BLEND",
      "doubleSided": true,
      "extensions": {
        "KHR_materials_pbrSpecularGlossiness": {
          "diffuseFactor": [
            1.0,
            1.0,
            1.0,
            1.0
          ],
          "diffuseTexture": {
            "index": 4
          },
          "glossinessFactor": 1.0,
          "specularFactor": [
            0.0,
            0.0,
            0.0
          ],
          "specularGlossinessTexture": {
            "index": 5
          }
        }
      },
      "name": "Grass2_Mat",
      "normalTexture": {
        "index": 6
      },
      "occlusionTexture": {
        "index": 7
      }
    },
    {
      "alphaMode": "BLEND",
      "doubleSided": true,
      "extensions": {
        "KHR_materials_pbrSpecularGlossiness": {
          "diffuseFactor": [
            1.0,
            1.0,
            1.0,
            1.0
          ],
          "diffuseTexture": {
            "index": 8
          },
          "glossinessFactor": 1.0,
          "specularFactor": [
            0.0,
            0.0,
            0.0
          ],
          "specularGlossinessTexture": {
            "index": 9
          }
        }
      },
      "name": "Grass1_Mat",
      "normalTexture": {
        "index": 10
      },
      "occlusionTexture": {
        "index": 11
      }
    },
    {
      "alphaMode": "BLEND",
      "doubleSided": true,
      "extensions": {
        "KHR_materials_pbrSpecularGlossiness": {
          "diffuseFactor": [
            1.0,
            1.0,
            1.0,
            1.0
          ],
          "diffuseTexture": {
            "index": 8
          },
          "glossinessFactor": 1.0,
          "specularFactor": [
            0.0,
            0.0,
            0.0
          ],
          "specularGlossinessTexture": {
            "index": 9
          }
        }
      },
      "name": "Grass_Mat1",
      "normalTexture": {
        "index": 10
      },
      "occlusionTexture": {
        "index": 11
      }
    },
    {
      "alphaMode": "BLEND",
      "doubleSided": true,
      "extensions": {
        "KHR_materials_pbrSpecularGlossiness": {
          "diffuseFactor": [
            1.0,
            1.0,
            1.0,
            1.0
          ],
          "diffuseTexture": {
            "index": 0
          },
          "glossinessFactor": 1.0,
          "specularFactor": [
            0.0,
            0.0,
            0.0
          ],
          "specularGlossinessTexture": {
            "index": 1
          }
        }
      },
      "name": "Grass2_Mat1",
      "normalTexture": {
        "index": 2
      },
      "occlusionTexture": {
        "index": 3
      }
    },
    {
      "alphaMode": "BLEND",
      "doubleSided": true,
      "extensions": {
        "KHR_materials_pbrSpecularGlossiness": {
          "diffuseFactor": [
            1.0,
            1.0,
            1.0,
            1.0
          ],
          "diffuseTexture": {
            "index": 4
          },
          "glossinessFactor": 1.0,
          "specularFactor": [
            0.0,
            0.0,
            0.0
          ],
          "specularGlossinessTexture": {
            "index": 5
          }
        }
      },
      "name": "Grass1_Mat1",
      "normalTexture": {
        "index": 6
      },
      "occlusionTexture": {
        "index": 7
      }
    },
    {
      "alphaMode": "BLEND",
      "doubleSided": true,
      "extensions": {
        "KHR_materials_pbrSpecularGlossiness": {
          "diffuseFactor": [
            1.0,
            1.0,
            1.0,
            1.0
          ],
          "diffuseTexture": {
            "index": 12
          },
          "glossinessFactor": 1.0,
          "specularFactor": [
            0.0,
            0.0,
            0.0
          ],
          "specularGlossinessTexture": {
            "index": 13
          }
        }
      },
      "name": "Grass3_Mat",
      "normalTexture": {
        "index": 14
      },
      "occlusionTexture": {
        "index": 15
      }
    },
    {
      "alphaMode": "BLEND",
      "doubleSided": true,
      "extensions": {
        "KHR_materials_pbrSpecularGlossiness": {
          "diffuseFactor": [
            1.0,
            1.0,
            1.0,
            1.0
          ],
          "diffuseTexture": {
            "index": 4
          },
          "glossinessFactor": 1.0,
          "specularFactor": [
            0.0,
            0.0,
            0.0
          ],
          "specularGlossinessTexture": {
            "index": 5
          }
        }
      },
      "name": "Grass2_Mat3",
      "normalTexture": {
        "index": 6
      },
      "occlusionTexture": {
        "index": 7
      }
    },
    {
      "alphaMode": "BLEND",
      "doubleSided": true,
      "extensions": {
        "KHR_materials_pbrSpecularGlossiness": {
          "diffuseFactor": [
            1.0,
            1.0,
            1.0,
            1.0
          ],
          "diffuseTexture": {
            "index": 0
          },
          "glossinessFactor": 1.0,
          "specularFactor": [
            0.0,
            0.0,
            0.0
          ],
          "specularGlossinessTexture": {
            "index": 1
          }
        }
      },
      "name": "Grass1_Mat3",
      "normalTexture": {
        "index": 2
      },
      "occlusionTexture": {
        "index": 3
      }
    }
  ],
  "meshes": [
    {
      "name": "Grass1_Grass_Mat_0",
      "primitives": [
        {
          "attributes": {
            "NORMAL": 1,
            "POSITION": 0,
            "TANGENT": 2,
            "TEXCOORD_0": 3,
            "TEXCOORD_1": 4,
            "TEXCOORD_2": 5,
            "TEXCOORD_3": 6
          },
          "indices": 7,
          "material": 0,
          "mode": 4
        }
      ]
    },
    {
      "name": "Grass1_Grass2_Mat_0",
      "primitives": [
        {
          "attributes": {
            "NORMAL": 9,
            "POSITION": 8,
            "TANGENT": 10,
            "TEXCOORD_0": 11,
            "TEXCOORD_1": 12,
            "TEXCOORD_2": 13,
            "TEXCOORD_3": 14
          },
          "indices": 15,
          "material": 1,
          "mode": 4
        }
      ]
    },
    {
      "name": "Grass1_Grass1_Mat_0",
      "primitives": [
        {
          "attributes": {
            "NORMAL": 17,
            "POSITION": 16,
            "TANGENT": 18,
            "TEXCOORD_0": 19,
            "TEXCOORD_1": 20,
            "TEXCOORD_2": 21,
            "TEXCOORD_3": 22
          },
          "indices": 23,
          "material": 2,
          "mode": 4
        }
      ]
    },
    {
      "name": "GrassLawnAutumn_Grass_Mat1_0",
      "primitives": [
        {
          "attributes": {
            "NORMAL": 25,
            "POSITION": 24,
            "TANGENT": 26,
            "TEXCOORD_0": 27,
            "TEXCOORD_1": 28,
            "TEXCOORD_2": 29,
            "TEXCOORD_3": 30
          },
          "indices": 31,
          "material": 3,
          "mode": 4
        }
      ]
    },
    {
      "name": "GrassLawnAutumn_Grass2_Mat1_0",
      "primitives": [
        {
          "attributes": {
            "NORMAL": 33,
            "POSITION": 32,
            "TANGENT": 34,
            "TEXCOORD_0": 35,
            "TEXCOORD_1": 36,
            "TEXCOORD_2": 37,
            "TEXCOORD_3": 38
          },
          "indices": 39,
          "material": 4,
          "mode": 4
        }
      ]
    },
    {
      "name": "GrassLawnAutumn_Grass1_Mat1_0",
      "primitives": [
        {
          "attributes": {
            "NORMAL": 41,
            "POSITION": 40,
            "TANGENT": 42,
            "TEXCOORD_0": 43,
            "TEXCOORD_1": 44,
            "TEXCOORD_2": 45,
            "TEXCOORD_3": 46
          },
          "indices": 47,
          "material": 5,
          "mode": 4
        }
      ]
    },
    {
      "name": "GrassLawnAutumn_Grass3_Mat_0",
      "primitives": [
        {
          "attributes": {
            "NORMAL": 49,
            "POSITION": 48,
            "TANGENT": 50,
            "TEXCOORD_0": 51,
            "TEXCOORD_1": 52,
            "TEXCOORD_2": 53,
            "TEXCOORD_3": 54
          },
          "indices": 55,
          "material": 6,
          "mode": 4
        }
      ]
    },
    {
      "name": "GrassAutumn3_Grass2_Mat3_0",
      "primitives": [
        {
          "attributes": {
            "NORMAL": 57,
            "POSITION": 56,
            "TANGENT": 58,
            "TEXCOORD_0": 59,
            "TEXCOORD_1": 60,
            "TEXCOORD_2": 61,
            "TEXCOORD_3": 62
          },
          "indices": 63,
          "material": 7,
          "mode": 4
        }
      ]
    },
    {
      "name": "GrassAutumn3_Grass1_Mat3_0",
      "primitives": [
        {
          "attributes": {
            "NORMAL": 65,
            "POSITION": 64,
            "TANGENT": 66,
            "TEXCOORD_0": 67,
            "TEXCOORD_1": 68,
            "TEXCOORD_2": 69,
            "TEXCOORD_3": 70
          },
          "indices": 71,
          "material": 8,
          "mode": 4
        }
      ]
    }
  ],
  "nodes": [
    {
      "children": [
        1
      ],
      "matrix": [
        1.0,
        0.0,
        0.0,
        0.0,
        0.0,
        2.220446049250313e-16,
        -1.0,
        0.0,
        0.0,
        1.0,
        2.220446049250313e-16,
        0.0,
        0.0,
        0.0,
        0.0,
        1.0
      ],
      "name": "Sketchfab_model"
    },
    {
      "children": [
        2
      ],
      "matrix": [
        1.0,
        0.0,
        0.0,
        0.0,
        0.0,
        0.0,
        1.0,
        0.0,
        0.0,
        -1.0,
        0.0,
        0.0,
        0.0,
        0.0,
        0.0,
        1.0
      ],
      "name": "690acfad11ac460581111752901ebea8.fbx"
    },
    {
      "children": [
        3,
        7,
        12
      ],
      "name": "RootNode"
    },
    {
      "children": [
        4,
        5,
        6
      ],
      "matrix": [
        0.009999999776482582,
        0.0,
        0.0,
        0.0,
        0.0,
        0.009999999776482582,
        0.0,
        0.0,
        0.0,
        0.0,
        0.009999999776482582,
        0.0,
        0.0,
        0.0,
        0.0,
        1.0
      ],
      "name": "Grass1"
    },
    {
      "mesh": 0,
      "name": "Grass1_Grass_Mat_0"
    },
    {
      "mesh": 1,
      "name": "Grass1_Grass2_Mat_0"
    },
    {
      "mesh": 2,
      "name": "Grass1_Grass1_Mat_0"
    },
    {
      "children": [
        8,
        9,
        10,
        11
      ],
      "matrix": [
        0.009999999776482582,
        0.0,
        0.0,
        0.0,
        0.0,
        0.009999999776482582,
        0.0,
        0.0,
        0.0,
        0.0,
        0.009999999776482582,
        0.0,
        0.0,
        0.0,
        0.0,
        1.0
      ],
      "name": "GrassLawnAutumn"
    },
    {
      "mesh": 3,
      "name": "GrassLawnAutumn_Grass_Mat1_0"
    },
    {
      "mesh": 4,
      "name": "GrassLawnAutumn_Grass2_Mat1_0"
    },
    {
      "mesh": 5,
      "name": "GrassLawnAutumn_Grass1_Mat1_0"
    },
    {
      "mesh": 6,
      "name": "GrassLawnAutumn_Grass3_Mat_0"
    },
    {
      "children": [
        13,
        14
      ],
      "matrix": [
        0.009999999776482582,
        0.0,
        0.0,
        0.0,
        0.0,
        0.009999999776482582,
        0.0,
        0.0,
        0.0,
        0.0,
        0.009999999776482582,
        0.0,
        0.0,
        0.0,
        -1.4210854715202004e-14,
        1.0
      ],
      "name": "GrassAutumn3"
    },
    {
      "mesh": 7,
      "name": "GrassAutumn3_Grass2_Mat3_0"
    },
    {
      "mesh": 8,
      "name": "GrassAutumn3_Grass1_Mat3_0"
    }
  ],
  "samplers": [
    {
      "magFilter": 9729,
      "minFilter": 9987,
      "wrapS": 10497,
      "wrapT": 10497
    }
  ],
  "scene": 0,
  "scenes": [
    {
      "name": "Sketchfab_Scene",
      "nodes": [
        0
      ]
    }
  ],
  "textures": [
    {
      "sampler": 0,
      "source": 0
    },
    {
      "sampler": 0,
      "source": 1
    },
    {
      "sampler": 0,
      "source": 2
    },
    {
      "sampler": 0,
      "source": 3
    },
    {
      "sampler": 0,
      "source": 4
    },
    {
      "sampler": 0,
      "source": 5
    },
    {
      "sampler": 0,
      "source": 6
    },
    {
      "sampler": 0,
      "source": 7
    },
    {
      "sampler": 0,
      "source": 8
    },
    {
      "sampler": 0,
      "source": 9
    },
    {
      "sampler": 0,
      "source": 10
    },
    {
      "sampler": 0,
      "source": 11
    },
    {
      "sampler": 0,
      "source": 12
    },
    {
      "sampler": 0,
      "source": 13
    },
    {
      "sampler": 0,
      "source": 14
    },
    {
      "sampler": 0,
      "source": 15
    }
  ]
}
