{
	"asset":{
		"generator":"Khronos glTF Blender I/O v5.0.21",
		"version":"2.0"
	},
	"extensionsUsed":[
		"KHR_materials_clearcoat",
		"KHR_materials_specular",
		"KHR_materials_ior"
	],
	"scene":0,
	"scenes":[
		{
			"name":"Scene",
			"nodes":[
				0
			]
		}
	],
	"nodes":[
		{
			"mesh":0,
			"name":"SM_Plant_Grass_Short_05"
		}
	],
	"materials":[
		{
			"alphaMode":"BLEND",
			"doubleSided":true,
			"extensions":{
				"KHR_materials_clearcoat":{
					"clearcoatRoughnessFactor":0
				},
				"KHR_materials_specular":{
					"specularFactor":0
				},
				"KHR_materials_ior":{
					"ior":1.4500000476837158
				}
			},
			"name":"Plant_Grass_Lavender_Mat",
			"normalTexture":{
				"index":0
			},
			"pbrMetallicRoughness":{
				"baseColorTexture":{
					"index":1
				},
				"metallicFactor":0,
				"metallicRoughnessTexture":{
					"index":2
				}
			}
		}
	],
	"meshes":[
		{
			"name":"Mesh.079",
			"primitives":[
				{
					"attributes":{
						"POSITION":0,
						"NORMAL":1,
						"TEXCOORD_0":2,
						"TEXCOORD_1":3
					},
					"indices":4,
					"material":0
				}
			]
		}
	],
	"textures":[
		{
			"sampler":0,
			"source":0
		},
		{
			"sampler":0,
			"source":1
		},
		{
			"sampler":0,
			"source":2
		}
	],
	"images":[
		{
			"mimeType":"image/png",
			"name":"T_Plant_Grass_Lavender_N.tga",
			"uri":"Textures/T_Plant_Grass_Lavender_N.tga"
		},
		{
			"mimeType":"image/png",
			"name":"T_Plant_Grass_Lavender_BCO.tga",
			"uri":"Textures/T_Plant_Grass_Lavender_BCO.tga"
		},
		{
			"mimeType":"image/png",
			"name":"T_Plant_Grass_Lavender_RTA.tga",
			"uri":"Textures/T_Plant_Grass_Lavender_RTA.tga"
		}
	],
	"accessors":[
		{
			"bufferView":0,
			"componentType":5126,
			"count":41,
			"max":[
				0.25635826587677,
				0.030617456883192062,
				0.20660370588302612
			],
			"min":[
				-0.17249858379364014,
				-0.007382161449640989,
				-0.12971025705337524
			],
			"type":"VEC3"
		},
		{
			"bufferView":1,
			"componentType":5126,
			"count":41,
			"type":"VEC3"
		},
		{
			"bufferView":2,
			"componentType":5126,
			"count":41,
			"type":"VEC2"
		},
		{
			"bufferView":3,
			"componentType":5126,
			"count":41,
			"type":"VEC2"
		},
		{
			"bufferView":4,
			"componentType":5123,
			"count":120,
			"type":"SCALAR"
		}
	],
	"bufferViews":[
		{
			"buffer":0,
			"byteLength":492,
			"byteOffset":0,
			"target":34962
		},
		{
			"buffer":0,
			"byteLength":492,
			"byteOffset":492,
			"target":34962
		},
		{
			"buffer":0,
			"byteLength":328,
			"byteOffset":984,
			"target":34962
		},
		{
			"buffer":0,
			"byteLength":328,
			"byteOffset":1312,
			"target":34962
		},
		{
			"buffer":0,
			"byteLength":240,
			"byteOffset":1640,
			"target":34963
		}
	],
	"samplers":[
		{
			"magFilter":9729,
			"minFilter":9987
		}
	],
	"buffers":[
		{
			"byteLength":1880,
			"uri":"SM_Plant_Grass_Short_05.bin"
		}
	]
}
