{
	"asset":{
		"generator":"Khronos glTF Blender I/O v5.0.21",
		"version":"2.0"
	},
	"extensionsUsed":[
		"KHR_materials_clearcoat",
		"KHR_materials_specular",
		"KHR_materials_ior"
	],
	"scene":0,
	"scenes":[
		{
			"name":"Scene",
			"nodes":[
				0
			]
		}
	],
	"nodes":[
		{
			"mesh":0,
			"name":"SM_Plant_Grass_Flower_Daisy_03"
		}
	],
	"materials":[
		{
			"alphaMode":"BLEND",
			"doubleSided":true,
			"extensions":{
				"KHR_materials_clearcoat":{
					"clearcoatRoughnessFactor":0
				},
				"KHR_materials_specular":{
					"specularFactor":0
				},
				"KHR_materials_ior":{
					"ior":1.4500000476837158
				}
			},
			"name":"Plant_Grass_Field_Mat",
			"normalTexture":{
				"index":0
			},
			"pbrMetallicRoughness":{
				"baseColorTexture":{
					"index":1
				},
				"metallicFactor":0,
				"metallicRoughnessTexture":{
					"index":2
				}
			}
		}
	],
	"meshes":[
		{
			"name":"Mesh.041",
			"primitives":[
				{
					"attributes":{
						"POSITION":0,
						"NORMAL":1,
						"TEXCOORD_0":2,
						"TEXCOORD_1":3,
						"COLOR_0":4,
						"COLOR_1":5
					},
					"indices":6,
					"material":0
				}
			]
		}
	],
	"textures":[
		{
			"sampler":0,
			"source":0
		},
		{
			"sampler":0,
			"source":1
		},
		{
			"sampler":0,
			"source":2
		}
	],
	"images":[
		{
			"mimeType":"image/png",
			"name":"T_Plant_Grass_Field_N.tga",
			"uri":"Textures/T_Plant_Grass_Field_N.tga"
		},
		{
			"mimeType":"image/png",
			"name":"T_Plant_Grass_Field_BCO.tga",
			"uri":"Textures/T_Plant_Grass_Field_BCO.tga"
		},
		{
			"mimeType":"image/png",
			"name":"T_Plant_Grass_Field_RTA.tga",
			"uri":"Textures/T_Plant_Grass_Field_RTA.tga"
		}
	],
	"accessors":[
		{
			"bufferView":0,
			"componentType":5126,
			"count":6394,
			"max":[
				0.2675528824329376,
				0.6599903702735901,
				0.39130735397338867
			],
			"min":[
				-0.3025008738040924,
				-0.04958317428827286,
				-0.23635487258434296
			],
			"type":"VEC3"
		},
		{
			"bufferView":1,
			"componentType":5126,
			"count":6394,
			"type":"VEC3"
		},
		{
			"bufferView":2,
			"componentType":5126,
			"count":6394,
			"type":"VEC2"
		},
		{
			"bufferView":3,
			"componentType":5126,
			"count":6394,
			"type":"VEC2"
		},
		{
			"bufferView":4,
			"componentType":5121,
			"count":6394,
			"normalized":true,
			"type":"VEC4"
		},
		{
			"bufferView":5,
			"componentType":5123,
			"count":6394,
			"normalized":true,
			"type":"VEC4"
		},
		{
			"bufferView":6,
			"componentType":5123,
			"count":23358,
			"type":"SCALAR"
		}
	],
	"bufferViews":[
		{
			"buffer":0,
			"byteLength":76728,
			"byteOffset":0,
			"target":34962
		},
		{
			"buffer":0,
			"byteLength":76728,
			"byteOffset":76728,
			"target":34962
		},
		{
			"buffer":0,
			"byteLength":51152,
			"byteOffset":153456,
			"target":34962
		},
		{
			"buffer":0,
			"byteLength":51152,
			"byteOffset":204608,
			"target":34962
		},
		{
			"buffer":0,
			"byteLength":25576,
			"byteOffset":255760,
			"target":34962
		},
		{
			"buffer":0,
			"byteLength":51152,
			"byteOffset":281336,
			"target":34962
		},
		{
			"buffer":0,
			"byteLength":46716,
			"byteOffset":332488,
			"target":34963
		}
	],
	"samplers":[
		{
			"magFilter":9729,
			"minFilter":9987
		}
	],
	"buffers":[
		{
			"byteLength":379204,
			"uri":"SM_Plant_Grass_Flower_Daisy_03.bin"
		}
	]
}
