{
	"asset":{
		"generator":"Khronos glTF Blender I/O v5.0.21",
		"version":"2.0"
	},
	"extensionsUsed":[
		"KHR_materials_clearcoat",
		"KHR_materials_specular",
		"KHR_materials_ior"
	],
	"scene":0,
	"scenes":[
		{
			"name":"Scene",
			"nodes":[
				0
			]
		}
	],
	"nodes":[
		{
			"mesh":0,
			"name":"SM_Plant_Grass_Field_Assemble_05"
		}
	],
	"materials":[
		{
			"alphaMode":"BLEND",
			"doubleSided":true,
			"extensions":{
				"KHR_materials_clearcoat":{
					"clearcoatRoughnessFactor":0
				},
				"KHR_materials_specular":{
					"specularFactor":0
				},
				"KHR_materials_ior":{
					"ior":1.4500000476837158
				}
			},
			"name":"Plant_Grass_Field_Mat",
			"normalTexture":{
				"index":0
			},
			"pbrMetallicRoughness":{
				"baseColorTexture":{
					"index":1
				},
				"metallicFactor":0,
				"metallicRoughnessTexture":{
					"index":2
				}
			}
		}
	],
	"meshes":[
		{
			"name":"Mesh.040",
			"primitives":[
				{
					"attributes":{
						"POSITION":0,
						"NORMAL":1,
						"TEXCOORD_0":2,
						"TEXCOORD_1":3,
						"COLOR_0":4,
						"COLOR_1":5,
						"COLOR_2":6
					},
					"indices":7,
					"material":0
				}
			]
		}
	],
	"textures":[
		{
			"sampler":0,
			"source":0
		},
		{
			"sampler":0,
			"source":1
		},
		{
			"sampler":0,
			"source":2
		}
	],
	"images":[
		{
			"mimeType":"image/png",
			"name":"T_Plant_Grass_Field_N.tga",
			"uri":"Textures/T_Plant_Grass_Field_N.tga"
		},
		{
			"mimeType":"image/png",
			"name":"T_Plant_Grass_Field_BCO.tga",
			"uri":"Textures/T_Plant_Grass_Field_BCO.tga"
		},
		{
			"mimeType":"image/png",
			"name":"T_Plant_Grass_Field_RTA.tga",
			"uri":"Textures/T_Plant_Grass_Field_RTA.tga"
		}
	],
	"accessors":[
		{
			"bufferView":0,
			"componentType":5126,
			"count":3230,
			"max":[
				0.6246273517608643,
				0.42732611298561096,
				0.6609101891517639
			],
			"min":[
				-0.5927832126617432,
				-0.038988180458545685,
				-0.5241166353225708
			],
			"type":"VEC3"
		},
		{
			"bufferView":1,
			"componentType":5126,
			"count":3230,
			"type":"VEC3"
		},
		{
			"bufferView":2,
			"componentType":5126,
			"count":3230,
			"type":"VEC2"
		},
		{
			"bufferView":3,
			"componentType":5126,
			"count":3230,
			"type":"VEC2"
		},
		{
			"bufferView":4,
			"componentType":5121,
			"count":3230,
			"normalized":true,
			"type":"VEC4"
		},
		{
			"bufferView":5,
			"componentType":5123,
			"count":3230,
			"normalized":true,
			"type":"VEC4"
		},
		{
			"bufferView":6,
			"componentType":5123,
			"count":3230,
			"normalized":true,
			"type":"VEC4"
		},
		{
			"bufferView":7,
			"componentType":5123,
			"count":8727,
			"type":"SCALAR"
		}
	],
	"bufferViews":[
		{
			"buffer":0,
			"byteLength":38760,
			"byteOffset":0,
			"target":34962
		},
		{
			"buffer":0,
			"byteLength":38760,
			"byteOffset":38760,
			"target":34962
		},
		{
			"buffer":0,
			"byteLength":25840,
			"byteOffset":77520,
			"target":34962
		},
		{
			"buffer":0,
			"byteLength":25840,
			"byteOffset":103360,
			"target":34962
		},
		{
			"buffer":0,
			"byteLength":12920,
			"byteOffset":129200,
			"target":34962
		},
		{
			"buffer":0,
			"byteLength":25840,
			"byteOffset":142120,
			"target":34962
		},
		{
			"buffer":0,
			"byteLength":25840,
			"byteOffset":167960,
			"target":34962
		},
		{
			"buffer":0,
			"byteLength":17454,
			"byteOffset":193800,
			"target":34963
		}
	],
	"samplers":[
		{
			"magFilter":9729,
			"minFilter":9987
		}
	],
	"buffers":[
		{
			"byteLength":211256,
			"uri":"SM_Plant_Grass_Field_Assemble_05.bin"
		}
	]
}
