{
	"asset":{
		"generator":"Khronos glTF Blender I/O v5.0.21",
		"version":"2.0"
	},
	"extensionsUsed":[
		"KHR_materials_clearcoat",
		"KHR_materials_specular",
		"KHR_materials_ior"
	],
	"scene":0,
	"scenes":[
		{
			"name":"Scene",
			"nodes":[
				0
			]
		}
	],
	"nodes":[
		{
			"mesh":0,
			"name":"SM_Plant_Grass_Reed_02"
		}
	],
	"materials":[
		{
			"alphaMode":"BLEND",
			"doubleSided":true,
			"extensions":{
				"KHR_materials_clearcoat":{
					"clearcoatRoughnessFactor":0
				},
				"KHR_materials_specular":{
					"specularFactor":0
				},
				"KHR_materials_ior":{
					"ior":1.4500000476837158
				}
			},
			"name":"Plant_Grass_Lavender_Mat",
			"normalTexture":{
				"index":0
			},
			"pbrMetallicRoughness":{
				"baseColorTexture":{
					"index":1
				},
				"metallicFactor":0,
				"metallicRoughnessTexture":{
					"index":2
				}
			}
		}
	],
	"meshes":[
		{
			"name":"Mesh.067",
			"primitives":[
				{
					"attributes":{
						"POSITION":0,
						"NORMAL":1,
						"TEXCOORD_0":2,
						"TEXCOORD_1":3,
						"COLOR_0":4,
						"COLOR_1":5,
						"COLOR_2":6
					},
					"indices":7,
					"material":0
				}
			]
		}
	],
	"textures":[
		{
			"sampler":0,
			"source":0
		},
		{
			"sampler":0,
			"source":1
		},
		{
			"sampler":0,
			"source":2
		}
	],
	"images":[
		{
			"mimeType":"image/png",
			"name":"T_Plant_Grass_Lavender_N.tga",
			"uri":"Textures/T_Plant_Grass_Lavender_N.tga"
		},
		{
			"mimeType":"image/png",
			"name":"T_Plant_Grass_Lavender_BCO.tga",
			"uri":"Textures/T_Plant_Grass_Lavender_BCO.tga"
		},
		{
			"mimeType":"image/png",
			"name":"T_Plant_Grass_Lavender_RTA.tga",
			"uri":"Textures/T_Plant_Grass_Lavender_RTA.tga"
		}
	],
	"accessors":[
		{
			"bufferView":0,
			"componentType":5126,
			"count":720,
			"max":[
				0.541176974773407,
				1.4225480556488037,
				0.8464122414588928
			],
			"min":[
				-0.8646034002304077,
				-0.016569476574659348,
				-0.6600286364555359
			],
			"type":"VEC3"
		},
		{
			"bufferView":1,
			"componentType":5126,
			"count":720,
			"type":"VEC3"
		},
		{
			"bufferView":2,
			"componentType":5126,
			"count":720,
			"type":"VEC2"
		},
		{
			"bufferView":3,
			"componentType":5126,
			"count":720,
			"type":"VEC2"
		},
		{
			"bufferView":4,
			"componentType":5121,
			"count":720,
			"normalized":true,
			"type":"VEC4"
		},
		{
			"bufferView":5,
			"componentType":5123,
			"count":720,
			"normalized":true,
			"type":"VEC4"
		},
		{
			"bufferView":6,
			"componentType":5123,
			"count":720,
			"normalized":true,
			"type":"VEC4"
		},
		{
			"bufferView":7,
			"componentType":5123,
			"count":2301,
			"type":"SCALAR"
		}
	],
	"bufferViews":[
		{
			"buffer":0,
			"byteLength":8640,
			"byteOffset":0,
			"target":34962
		},
		{
			"buffer":0,
			"byteLength":8640,
			"byteOffset":8640,
			"target":34962
		},
		{
			"buffer":0,
			"byteLength":5760,
			"byteOffset":17280,
			"target":34962
		},
		{
			"buffer":0,
			"byteLength":5760,
			"byteOffset":23040,
			"target":34962
		},
		{
			"buffer":0,
			"byteLength":2880,
			"byteOffset":28800,
			"target":34962
		},
		{
			"buffer":0,
			"byteLength":5760,
			"byteOffset":31680,
			"target":34962
		},
		{
			"buffer":0,
			"byteLength":5760,
			"byteOffset":37440,
			"target":34962
		},
		{
			"buffer":0,
			"byteLength":4602,
			"byteOffset":43200,
			"target":34963
		}
	],
	"samplers":[
		{
			"magFilter":9729,
			"minFilter":9987
		}
	],
	"buffers":[
		{
			"byteLength":47804,
			"uri":"SM_Plant_Grass_Reed_02.bin"
		}
	]
}
