{
	"asset":{
		"generator":"Khronos glTF Blender I/O v5.0.21",
		"version":"2.0"
	},
	"extensionsUsed":[
		"KHR_materials_clearcoat",
		"KHR_materials_specular",
		"KHR_materials_ior"
	],
	"scene":0,
	"scenes":[
		{
			"name":"Scene",
			"nodes":[
				0
			]
		}
	],
	"nodes":[
		{
			"mesh":0,
			"name":"SM_Plant_Grass_Knotweed_04"
		}
	],
	"materials":[
		{
			"alphaMode":"BLEND",
			"doubleSided":true,
			"extensions":{
				"KHR_materials_clearcoat":{
					"clearcoatRoughnessFactor":0
				},
				"KHR_materials_specular":{
					"specularFactor":0
				},
				"KHR_materials_ior":{
					"ior":1.4500000476837158
				}
			},
			"name":"Plant_Grass_Field_Mat",
			"normalTexture":{
				"index":0
			},
			"pbrMetallicRoughness":{
				"baseColorTexture":{
					"index":1
				},
				"metallicFactor":0,
				"metallicRoughnessTexture":{
					"index":2
				}
			}
		}
	],
	"meshes":[
		{
			"name":"Mesh.018",
			"primitives":[
				{
					"attributes":{
						"POSITION":0,
						"NORMAL":1,
						"TEXCOORD_0":2,
						"TEXCOORD_1":3,
						"COLOR_0":4,
						"COLOR_1":5
					},
					"indices":6,
					"material":0
				}
			]
		}
	],
	"textures":[
		{
			"sampler":0,
			"source":0
		},
		{
			"sampler":0,
			"source":1
		},
		{
			"sampler":0,
			"source":2
		}
	],
	"images":[
		{
			"mimeType":"image/png",
			"name":"T_Plant_Grass_Field_N.tga",
			"uri":"Textures/T_Plant_Grass_Field_N.tga"
		},
		{
			"mimeType":"image/png",
			"name":"T_Plant_Grass_Field_BCO.tga",
			"uri":"Textures/T_Plant_Grass_Field_BCO.tga"
		},
		{
			"mimeType":"image/png",
			"name":"T_Plant_Grass_Field_RTA.tga",
			"uri":"Textures/T_Plant_Grass_Field_RTA.tga"
		}
	],
	"accessors":[
		{
			"bufferView":0,
			"componentType":5126,
			"count":1501,
			"max":[
				0.5338839888572693,
				0.16744911670684814,
				0.5061265826225281
			],
			"min":[
				-0.5652841925621033,
				-0.009044763632118702,
				-0.43704360723495483
			],
			"type":"VEC3"
		},
		{
			"bufferView":1,
			"componentType":5126,
			"count":1501,
			"type":"VEC3"
		},
		{
			"bufferView":2,
			"componentType":5126,
			"count":1501,
			"type":"VEC2"
		},
		{
			"bufferView":3,
			"componentType":5126,
			"count":1501,
			"type":"VEC2"
		},
		{
			"bufferView":4,
			"componentType":5121,
			"count":1501,
			"normalized":true,
			"type":"VEC4"
		},
		{
			"bufferView":5,
			"componentType":5123,
			"count":1501,
			"normalized":true,
			"type":"VEC4"
		},
		{
			"bufferView":6,
			"componentType":5123,
			"count":4194,
			"type":"SCALAR"
		}
	],
	"bufferViews":[
		{
			"buffer":0,
			"byteLength":18012,
			"byteOffset":0,
			"target":34962
		},
		{
			"buffer":0,
			"byteLength":18012,
			"byteOffset":18012,
			"target":34962
		},
		{
			"buffer":0,
			"byteLength":12008,
			"byteOffset":36024,
			"target":34962
		},
		{
			"buffer":0,
			"byteLength":12008,
			"byteOffset":48032,
			"target":34962
		},
		{
			"buffer":0,
			"byteLength":6004,
			"byteOffset":60040,
			"target":34962
		},
		{
			"buffer":0,
			"byteLength":12008,
			"byteOffset":66044,
			"target":34962
		},
		{
			"buffer":0,
			"byteLength":8388,
			"byteOffset":78052,
			"target":34963
		}
	],
	"samplers":[
		{
			"magFilter":9729,
			"minFilter":9987
		}
	],
	"buffers":[
		{
			"byteLength":86440,
			"uri":"SM_Plant_Grass_Knotweed_04.bin"
		}
	]
}
