{
	"asset":{
		"generator":"Khronos glTF Blender I/O v5.0.21",
		"version":"2.0"
	},
	"extensionsUsed":[
		"KHR_materials_clearcoat",
		"KHR_materials_specular",
		"KHR_materials_ior"
	],
	"scene":0,
	"scenes":[
		{
			"name":"Scene",
			"nodes":[
				0
			]
		}
	],
	"nodes":[
		{
			"mesh":0,
			"name":"SM_Plant_Grass_Yarrow_02"
		}
	],
	"materials":[
		{
			"alphaMode":"BLEND",
			"doubleSided":true,
			"extensions":{
				"KHR_materials_clearcoat":{
					"clearcoatRoughnessFactor":0
				},
				"KHR_materials_specular":{
					"specularFactor":0
				},
				"KHR_materials_ior":{
					"ior":1.4500000476837158
				}
			},
			"name":"Plant_Grass_Yarrow_Mat",
			"normalTexture":{
				"index":0
			},
			"pbrMetallicRoughness":{
				"baseColorTexture":{
					"index":1
				},
				"metallicFactor":0,
				"metallicRoughnessTexture":{
					"index":2
				}
			}
		}
	],
	"meshes":[
		{
			"name":"Mesh.083",
			"primitives":[
				{
					"attributes":{
						"POSITION":0,
						"NORMAL":1,
						"TEXCOORD_0":2,
						"TEXCOORD_1":3,
						"COLOR_0":4,
						"COLOR_1":5
					},
					"indices":6,
					"material":0
				}
			]
		}
	],
	"textures":[
		{
			"sampler":0,
			"source":0
		},
		{
			"sampler":0,
			"source":1
		},
		{
			"sampler":0,
			"source":2
		}
	],
	"images":[
		{
			"mimeType":"image/png",
			"name":"T_Plant_Grass_Yarrow_N.tga",
			"uri":"Textures/T_Plant_Grass_Yarrow_N.tga"
		},
		{
			"mimeType":"image/png",
			"name":"T_Plant_Grass_Yarrow_BCO.tga",
			"uri":"Textures/T_Plant_Grass_Yarrow_BCO.tga"
		},
		{
			"mimeType":"image/png",
			"name":"T_Plant_Grass_Yarrow_RTA.tga",
			"uri":"Textures/T_Plant_Grass_Yarrow_RTA.tga"
		}
	],
	"accessors":[
		{
			"bufferView":0,
			"componentType":5126,
			"count":582,
			"max":[
				0.11666112393140793,
				0.3792220950126648,
				0.08046750724315643
			],
			"min":[
				-0.0875033289194107,
				-0.0023742972407490015,
				-0.06000421568751335
			],
			"type":"VEC3"
		},
		{
			"bufferView":1,
			"componentType":5126,
			"count":582,
			"type":"VEC3"
		},
		{
			"bufferView":2,
			"componentType":5126,
			"count":582,
			"type":"VEC2"
		},
		{
			"bufferView":3,
			"componentType":5126,
			"count":582,
			"type":"VEC2"
		},
		{
			"bufferView":4,
			"componentType":5121,
			"count":582,
			"normalized":true,
			"type":"VEC4"
		},
		{
			"bufferView":5,
			"componentType":5123,
			"count":582,
			"normalized":true,
			"type":"VEC4"
		},
		{
			"bufferView":6,
			"componentType":5123,
			"count":1815,
			"type":"SCALAR"
		}
	],
	"bufferViews":[
		{
			"buffer":0,
			"byteLength":6984,
			"byteOffset":0,
			"target":34962
		},
		{
			"buffer":0,
			"byteLength":6984,
			"byteOffset":6984,
			"target":34962
		},
		{
			"buffer":0,
			"byteLength":4656,
			"byteOffset":13968,
			"target":34962
		},
		{
			"buffer":0,
			"byteLength":4656,
			"byteOffset":18624,
			"target":34962
		},
		{
			"buffer":0,
			"byteLength":2328,
			"byteOffset":23280,
			"target":34962
		},
		{
			"buffer":0,
			"byteLength":4656,
			"byteOffset":25608,
			"target":34962
		},
		{
			"buffer":0,
			"byteLength":3630,
			"byteOffset":30264,
			"target":34963
		}
	],
	"samplers":[
		{
			"magFilter":9729,
			"minFilter":9987
		}
	],
	"buffers":[
		{
			"byteLength":33896,
			"uri":"SM_Plant_Grass_Yarrow_02.bin"
		}
	]
}
