{
	"asset":{
		"generator":"Khronos glTF Blender I/O v5.0.21",
		"version":"2.0"
	},
	"extensionsUsed":[
		"KHR_materials_clearcoat",
		"KHR_materials_specular",
		"KHR_materials_ior"
	],
	"scene":0,
	"scenes":[
		{
			"name":"Scene",
			"nodes":[
				0
			]
		}
	],
	"nodes":[
		{
			"mesh":0,
			"name":"SM_Plant_Grass_Yarrow_01"
		}
	],
	"materials":[
		{
			"alphaMode":"BLEND",
			"doubleSided":true,
			"extensions":{
				"KHR_materials_clearcoat":{
					"clearcoatRoughnessFactor":0
				},
				"KHR_materials_specular":{
					"specularFactor":0
				},
				"KHR_materials_ior":{
					"ior":1.4500000476837158
				}
			},
			"name":"Plant_Grass_Yarrow_Mat",
			"normalTexture":{
				"index":0
			},
			"pbrMetallicRoughness":{
				"baseColorTexture":{
					"index":1
				},
				"metallicFactor":0,
				"metallicRoughnessTexture":{
					"index":2
				}
			}
		}
	],
	"meshes":[
		{
			"name":"Mesh.082",
			"primitives":[
				{
					"attributes":{
						"POSITION":0,
						"NORMAL":1,
						"TEXCOORD_0":2,
						"TEXCOORD_1":3,
						"COLOR_0":4,
						"COLOR_1":5
					},
					"indices":6,
					"material":0
				}
			]
		}
	],
	"textures":[
		{
			"sampler":0,
			"source":0
		},
		{
			"sampler":0,
			"source":1
		},
		{
			"sampler":0,
			"source":2
		}
	],
	"images":[
		{
			"mimeType":"image/png",
			"name":"T_Plant_Grass_Yarrow_N.tga",
			"uri":"Textures/T_Plant_Grass_Yarrow_N.tga"
		},
		{
			"mimeType":"image/png",
			"name":"T_Plant_Grass_Yarrow_BCO.tga",
			"uri":"Textures/T_Plant_Grass_Yarrow_BCO.tga"
		},
		{
			"mimeType":"image/png",
			"name":"T_Plant_Grass_Yarrow_RTA.tga",
			"uri":"Textures/T_Plant_Grass_Yarrow_RTA.tga"
		}
	],
	"accessors":[
		{
			"bufferView":0,
			"componentType":5126,
			"count":699,
			"max":[
				0.14445693790912628,
				0.5220587849617004,
				0.14183162152767181
			],
			"min":[
				-0.1604337990283966,
				-0.000652564165648073,
				-0.08638489246368408
			],
			"type":"VEC3"
		},
		{
			"bufferView":1,
			"componentType":5126,
			"count":699,
			"type":"VEC3"
		},
		{
			"bufferView":2,
			"componentType":5126,
			"count":699,
			"type":"VEC2"
		},
		{
			"bufferView":3,
			"componentType":5126,
			"count":699,
			"type":"VEC2"
		},
		{
			"bufferView":4,
			"componentType":5121,
			"count":699,
			"normalized":true,
			"type":"VEC4"
		},
		{
			"bufferView":5,
			"componentType":5123,
			"count":699,
			"normalized":true,
			"type":"VEC4"
		},
		{
			"bufferView":6,
			"componentType":5123,
			"count":2283,
			"type":"SCALAR"
		}
	],
	"bufferViews":[
		{
			"buffer":0,
			"byteLength":8388,
			"byteOffset":0,
			"target":34962
		},
		{
			"buffer":0,
			"byteLength":8388,
			"byteOffset":8388,
			"target":34962
		},
		{
			"buffer":0,
			"byteLength":5592,
			"byteOffset":16776,
			"target":34962
		},
		{
			"buffer":0,
			"byteLength":5592,
			"byteOffset":22368,
			"target":34962
		},
		{
			"buffer":0,
			"byteLength":2796,
			"byteOffset":27960,
			"target":34962
		},
		{
			"buffer":0,
			"byteLength":5592,
			"byteOffset":30756,
			"target":34962
		},
		{
			"buffer":0,
			"byteLength":4566,
			"byteOffset":36348,
			"target":34963
		}
	],
	"samplers":[
		{
			"magFilter":9729,
			"minFilter":9987
		}
	],
	"buffers":[
		{
			"byteLength":40916,
			"uri":"SM_Plant_Grass_Yarrow_01.bin"
		}
	]
}
