{
	"asset":{
		"generator":"Khronos glTF Blender I/O v5.0.21",
		"version":"2.0"
	},
	"extensionsUsed":[
		"KHR_materials_clearcoat",
		"KHR_materials_specular",
		"KHR_materials_ior"
	],
	"scene":0,
	"scenes":[
		{
			"name":"Scene",
			"nodes":[
				0
			]
		}
	],
	"nodes":[
		{
			"mesh":0,
			"name":"SM_Plant_Grass_Field_Assemble_03"
		}
	],
	"materials":[
		{
			"alphaMode":"BLEND",
			"doubleSided":true,
			"extensions":{
				"KHR_materials_clearcoat":{
					"clearcoatRoughnessFactor":0
				},
				"KHR_materials_specular":{
					"specularFactor":0
				},
				"KHR_materials_ior":{
					"ior":1.4500000476837158
				}
			},
			"name":"Plant_Grass_Field_Mat",
			"normalTexture":{
				"index":0
			},
			"pbrMetallicRoughness":{
				"baseColorTexture":{
					"index":1
				},
				"metallicFactor":0,
				"metallicRoughnessTexture":{
					"index":2
				}
			}
		},
		{
			"alphaMode":"BLEND",
			"doubleSided":true,
			"extensions":{
				"KHR_materials_clearcoat":{
					"clearcoatRoughnessFactor":0
				},
				"KHR_materials_specular":{
					"specularFactor":0
				},
				"KHR_materials_ior":{
					"ior":1.4500000476837158
				}
			},
			"name":"Plant_Grass_Yarrow_Mat",
			"normalTexture":{
				"index":3
			},
			"pbrMetallicRoughness":{
				"baseColorTexture":{
					"index":4
				},
				"metallicFactor":0,
				"metallicRoughnessTexture":{
					"index":5
				}
			}
		},
		{
			"alphaMode":"BLEND",
			"doubleSided":true,
			"extensions":{
				"KHR_materials_clearcoat":{
					"clearcoatRoughnessFactor":0
				},
				"KHR_materials_specular":{
					"specularFactor":0
				},
				"KHR_materials_ior":{
					"ior":1.4500000476837158
				}
			},
			"name":"Plant_Grass_Lavender_Mat",
			"normalTexture":{
				"index":6
			},
			"pbrMetallicRoughness":{
				"baseColorTexture":{
					"index":7
				},
				"metallicFactor":0,
				"metallicRoughnessTexture":{
					"index":8
				}
			}
		}
	],
	"meshes":[
		{
			"name":"Mesh.031",
			"primitives":[
				{
					"attributes":{
						"POSITION":0,
						"NORMAL":1,
						"TEXCOORD_0":2,
						"TEXCOORD_1":3,
						"COLOR_0":4,
						"COLOR_1":5,
						"COLOR_2":6
					},
					"indices":7,
					"material":0
				},
				{
					"attributes":{
						"POSITION":8,
						"NORMAL":9,
						"TEXCOORD_0":10,
						"TEXCOORD_1":11,
						"COLOR_0":12,
						"COLOR_1":13,
						"COLOR_2":14
					},
					"indices":15,
					"material":1
				},
				{
					"attributes":{
						"POSITION":16,
						"NORMAL":17,
						"TEXCOORD_0":18,
						"TEXCOORD_1":19,
						"COLOR_0":20,
						"COLOR_1":21,
						"COLOR_2":22
					},
					"indices":23,
					"material":2
				}
			]
		}
	],
	"textures":[
		{
			"sampler":0,
			"source":0
		},
		{
			"sampler":0,
			"source":1
		},
		{
			"sampler":0,
			"source":2
		},
		{
			"sampler":0,
			"source":3
		},
		{
			"sampler":0,
			"source":4
		},
		{
			"sampler":0,
			"source":5
		},
		{
			"sampler":0,
			"source":6
		},
		{
			"sampler":0,
			"source":7
		},
		{
			"sampler":0,
			"source":8
		}
	],
	"images":[
		{
			"mimeType":"image/png",
			"name":"T_Plant_Grass_Field_N.tga",
			"uri":"Textures/T_Plant_Grass_Field_N.tga"
		},
		{
			"mimeType":"image/png",
			"name":"T_Plant_Grass_Field_BCO.tga",
			"uri":"Textures/T_Plant_Grass_Field_BCO.tga"
		},
		{
			"mimeType":"image/png",
			"name":"T_Plant_Grass_Field_RTA.tga",
			"uri":"Textures/T_Plant_Grass_Field_RTA.tga"
		},
		{
			"mimeType":"image/png",
			"name":"T_Plant_Grass_Yarrow_N.tga",
			"uri":"Textures/T_Plant_Grass_Yarrow_N.tga"
		},
		{
			"mimeType":"image/png",
			"name":"T_Plant_Grass_Yarrow_BCO.tga",
			"uri":"Textures/T_Plant_Grass_Yarrow_BCO.tga"
		},
		{
			"mimeType":"image/png",
			"name":"T_Plant_Grass_Yarrow_RTA.tga",
			"uri":"Textures/T_Plant_Grass_Yarrow_RTA.tga"
		},
		{
			"mimeType":"image/png",
			"name":"T_Plant_Grass_Lavender_N.tga",
			"uri":"Textures/T_Plant_Grass_Lavender_N.tga"
		},
		{
			"mimeType":"image/png",
			"name":"T_Plant_Grass_Lavender_BCO.tga",
			"uri":"Textures/T_Plant_Grass_Lavender_BCO.tga"
		},
		{
			"mimeType":"image/png",
			"name":"T_Plant_Grass_Lavender_RTA.tga",
			"uri":"Textures/T_Plant_Grass_Lavender_RTA.tga"
		}
	],
	"accessors":[
		{
			"bufferView":0,
			"componentType":5126,
			"count":1535,
			"max":[
				0.48745283484458923,
				0.2837536931037903,
				0.4688396751880646
			],
			"min":[
				-0.725511908531189,
				-0.009044752456247807,
				-0.4735886752605438
			],
			"type":"VEC3"
		},
		{
			"bufferView":1,
			"componentType":5126,
			"count":1535,
			"type":"VEC3"
		},
		{
			"bufferView":2,
			"componentType":5126,
			"count":1535,
			"type":"VEC2"
		},
		{
			"bufferView":3,
			"componentType":5126,
			"count":1535,
			"type":"VEC2"
		},
		{
			"bufferView":4,
			"componentType":5121,
			"count":1535,
			"normalized":true,
			"type":"VEC4"
		},
		{
			"bufferView":5,
			"componentType":5123,
			"count":1535,
			"normalized":true,
			"type":"VEC4"
		},
		{
			"bufferView":6,
			"componentType":5123,
			"count":1535,
			"normalized":true,
			"type":"VEC4"
		},
		{
			"bufferView":7,
			"componentType":5123,
			"count":4335,
			"type":"SCALAR"
		},
		{
			"bufferView":8,
			"componentType":5126,
			"count":1049,
			"max":[
				0.7254536151885986,
				0.11172991991043091,
				0.31805700063705444
			],
			"min":[
				0.0053501795046031475,
				-0.001916128327138722,
				-0.5686354637145996
			],
			"type":"VEC3"
		},
		{
			"bufferView":9,
			"componentType":5126,
			"count":1049,
			"type":"VEC3"
		},
		{
			"bufferView":10,
			"componentType":5126,
			"count":1049,
			"type":"VEC2"
		},
		{
			"bufferView":11,
			"componentType":5126,
			"count":1049,
			"type":"VEC2"
		},
		{
			"bufferView":12,
			"componentType":5121,
			"count":1049,
			"normalized":true,
			"type":"VEC4"
		},
		{
			"bufferView":13,
			"componentType":5123,
			"count":1049,
			"normalized":true,
			"type":"VEC4"
		},
		{
			"bufferView":14,
			"componentType":5123,
			"count":1049,
			"normalized":true,
			"type":"VEC4"
		},
		{
			"bufferView":15,
			"componentType":5123,
			"count":3507,
			"type":"SCALAR"
		},
		{
			"bufferView":16,
			"componentType":5126,
			"count":41,
			"max":[
				-0.12456990033388138,
				0.030617449432611465,
				0.24976746737957
			],
			"min":[
				-0.5534267425537109,
				-0.007382168434560299,
				-0.08654658496379852
			],
			"type":"VEC3"
		},
		{
			"bufferView":17,
			"componentType":5126,
			"count":41,
			"type":"VEC3"
		},
		{
			"bufferView":18,
			"componentType":5126,
			"count":41,
			"type":"VEC2"
		},
		{
			"bufferView":19,
			"componentType":5126,
			"count":41,
			"type":"VEC2"
		},
		{
			"bufferView":20,
			"componentType":5121,
			"count":41,
			"normalized":true,
			"type":"VEC4"
		},
		{
			"bufferView":21,
			"componentType":5123,
			"count":41,
			"normalized":true,
			"type":"VEC4"
		},
		{
			"bufferView":22,
			"componentType":5123,
			"count":41,
			"normalized":true,
			"type":"VEC4"
		},
		{
			"bufferView":23,
			"componentType":5123,
			"count":120,
			"type":"SCALAR"
		}
	],
	"bufferViews":[
		{
			"buffer":0,
			"byteLength":18420,
			"byteOffset":0,
			"target":34962
		},
		{
			"buffer":0,
			"byteLength":18420,
			"byteOffset":18420,
			"target":34962
		},
		{
			"buffer":0,
			"byteLength":12280,
			"byteOffset":36840,
			"target":34962
		},
		{
			"buffer":0,
			"byteLength":12280,
			"byteOffset":49120,
			"target":34962
		},
		{
			"buffer":0,
			"byteLength":6140,
			"byteOffset":61400,
			"target":34962
		},
		{
			"buffer":0,
			"byteLength":12280,
			"byteOffset":67540,
			"target":34962
		},
		{
			"buffer":0,
			"byteLength":12280,
			"byteOffset":79820,
			"target":34962
		},
		{
			"buffer":0,
			"byteLength":8670,
			"byteOffset":92100,
			"target":34963
		},
		{
			"buffer":0,
			"byteLength":12588,
			"byteOffset":100772,
			"target":34962
		},
		{
			"buffer":0,
			"byteLength":12588,
			"byteOffset":113360,
			"target":34962
		},
		{
			"buffer":0,
			"byteLength":8392,
			"byteOffset":125948,
			"target":34962
		},
		{
			"buffer":0,
			"byteLength":8392,
			"byteOffset":134340,
			"target":34962
		},
		{
			"buffer":0,
			"byteLength":4196,
			"byteOffset":142732,
			"target":34962
		},
		{
			"buffer":0,
			"byteLength":8392,
			"byteOffset":146928,
			"target":34962
		},
		{
			"buffer":0,
			"byteLength":8392,
			"byteOffset":155320,
			"target":34962
		},
		{
			"buffer":0,
			"byteLength":7014,
			"byteOffset":163712,
			"target":34963
		},
		{
			"buffer":0,
			"byteLength":492,
			"byteOffset":170728,
			"target":34962
		},
		{
			"buffer":0,
			"byteLength":492,
			"byteOffset":171220,
			"target":34962
		},
		{
			"buffer":0,
			"byteLength":328,
			"byteOffset":171712,
			"target":34962
		},
		{
			"buffer":0,
			"byteLength":328,
			"byteOffset":172040,
			"target":34962
		},
		{
			"buffer":0,
			"byteLength":164,
			"byteOffset":172368,
			"target":34962
		},
		{
			"buffer":0,
			"byteLength":328,
			"byteOffset":172532,
			"target":34962
		},
		{
			"buffer":0,
			"byteLength":328,
			"byteOffset":172860,
			"target":34962
		},
		{
			"buffer":0,
			"byteLength":240,
			"byteOffset":173188,
			"target":34963
		}
	],
	"samplers":[
		{
			"magFilter":9729,
			"minFilter":9987
		}
	],
	"buffers":[
		{
			"byteLength":173428,
			"uri":"SM_Plant_Grass_Field_Assemble_03.bin"
		}
	]
}
