{
	"asset":{
		"generator":"Khronos glTF Blender I/O v5.0.21",
		"version":"2.0"
	},
	"extensionsUsed":[
		"KHR_materials_clearcoat",
		"KHR_materials_specular",
		"KHR_materials_ior"
	],
	"scene":0,
	"scenes":[
		{
			"name":"Scene",
			"nodes":[
				0
			]
		}
	],
	"nodes":[
		{
			"mesh":0,
			"name":"SM_Plant_Grass_Field_Assemble_02"
		}
	],
	"materials":[
		{
			"alphaMode":"BLEND",
			"doubleSided":true,
			"extensions":{
				"KHR_materials_clearcoat":{
					"clearcoatRoughnessFactor":0
				},
				"KHR_materials_specular":{
					"specularFactor":0
				},
				"KHR_materials_ior":{
					"ior":1.4500000476837158
				}
			},
			"name":"Plant_Grass_Field_Mat",
			"normalTexture":{
				"index":0
			},
			"pbrMetallicRoughness":{
				"baseColorTexture":{
					"index":1
				},
				"metallicFactor":0,
				"metallicRoughnessTexture":{
					"index":2
				}
			}
		},
		{
			"alphaMode":"BLEND",
			"doubleSided":true,
			"extensions":{
				"KHR_materials_clearcoat":{
					"clearcoatRoughnessFactor":0
				},
				"KHR_materials_specular":{
					"specularFactor":0
				},
				"KHR_materials_ior":{
					"ior":1.4500000476837158
				}
			},
			"name":"Plant_Grass_Yarrow_Mat",
			"normalTexture":{
				"index":3
			},
			"pbrMetallicRoughness":{
				"baseColorTexture":{
					"index":4
				},
				"metallicFactor":0,
				"metallicRoughnessTexture":{
					"index":5
				}
			}
		}
	],
	"meshes":[
		{
			"name":"Mesh.030",
			"primitives":[
				{
					"attributes":{
						"POSITION":0,
						"NORMAL":1,
						"TEXCOORD_0":2,
						"TEXCOORD_1":3,
						"COLOR_0":4,
						"COLOR_1":5,
						"COLOR_2":6
					},
					"indices":7,
					"material":0
				},
				{
					"attributes":{
						"POSITION":8,
						"NORMAL":9,
						"TEXCOORD_0":10,
						"TEXCOORD_1":11,
						"COLOR_0":12,
						"COLOR_1":13,
						"COLOR_2":14
					},
					"indices":15,
					"material":1
				}
			]
		}
	],
	"textures":[
		{
			"sampler":0,
			"source":0
		},
		{
			"sampler":0,
			"source":1
		},
		{
			"sampler":0,
			"source":2
		},
		{
			"sampler":0,
			"source":3
		},
		{
			"sampler":0,
			"source":4
		},
		{
			"sampler":0,
			"source":5
		}
	],
	"images":[
		{
			"mimeType":"image/png",
			"name":"T_Plant_Grass_Field_N.tga",
			"uri":"Textures/T_Plant_Grass_Field_N.tga"
		},
		{
			"mimeType":"image/png",
			"name":"T_Plant_Grass_Field_BCO.tga",
			"uri":"Textures/T_Plant_Grass_Field_BCO.tga"
		},
		{
			"mimeType":"image/png",
			"name":"T_Plant_Grass_Field_RTA.tga",
			"uri":"Textures/T_Plant_Grass_Field_RTA.tga"
		},
		{
			"mimeType":"image/png",
			"name":"T_Plant_Grass_Yarrow_N.tga",
			"uri":"Textures/T_Plant_Grass_Yarrow_N.tga"
		},
		{
			"mimeType":"image/png",
			"name":"T_Plant_Grass_Yarrow_BCO.tga",
			"uri":"Textures/T_Plant_Grass_Yarrow_BCO.tga"
		},
		{
			"mimeType":"image/png",
			"name":"T_Plant_Grass_Yarrow_RTA.tga",
			"uri":"Textures/T_Plant_Grass_Yarrow_RTA.tga"
		}
	],
	"accessors":[
		{
			"bufferView":0,
			"componentType":5126,
			"count":2358,
			"max":[
				0.5027518272399902,
				0.42732611298561096,
				0.4046480059623718
			],
			"min":[
				-0.5480837821960449,
				-0.017734913155436516,
				-0.3680984079837799
			],
			"type":"VEC3"
		},
		{
			"bufferView":1,
			"componentType":5126,
			"count":2358,
			"type":"VEC3"
		},
		{
			"bufferView":2,
			"componentType":5126,
			"count":2358,
			"type":"VEC2"
		},
		{
			"bufferView":3,
			"componentType":5126,
			"count":2358,
			"type":"VEC2"
		},
		{
			"bufferView":4,
			"componentType":5121,
			"count":2358,
			"normalized":true,
			"type":"VEC4"
		},
		{
			"bufferView":5,
			"componentType":5123,
			"count":2358,
			"normalized":true,
			"type":"VEC4"
		},
		{
			"bufferView":6,
			"componentType":5123,
			"count":2358,
			"normalized":true,
			"type":"VEC4"
		},
		{
			"bufferView":7,
			"componentType":5123,
			"count":6342,
			"type":"SCALAR"
		},
		{
			"bufferView":8,
			"componentType":5126,
			"count":156,
			"max":[
				0.2964407205581665,
				0.11172990500926971,
				0.3883950412273407
			],
			"min":[
				-0.01647239737212658,
				-0.001916144392453134,
				0.11453375220298767
			],
			"type":"VEC3"
		},
		{
			"bufferView":9,
			"componentType":5126,
			"count":156,
			"type":"VEC3"
		},
		{
			"bufferView":10,
			"componentType":5126,
			"count":156,
			"type":"VEC2"
		},
		{
			"bufferView":11,
			"componentType":5126,
			"count":156,
			"type":"VEC2"
		},
		{
			"bufferView":12,
			"componentType":5121,
			"count":156,
			"normalized":true,
			"type":"VEC4"
		},
		{
			"bufferView":13,
			"componentType":5123,
			"count":156,
			"normalized":true,
			"type":"VEC4"
		},
		{
			"bufferView":14,
			"componentType":5123,
			"count":156,
			"normalized":true,
			"type":"VEC4"
		},
		{
			"bufferView":15,
			"componentType":5123,
			"count":522,
			"type":"SCALAR"
		}
	],
	"bufferViews":[
		{
			"buffer":0,
			"byteLength":28296,
			"byteOffset":0,
			"target":34962
		},
		{
			"buffer":0,
			"byteLength":28296,
			"byteOffset":28296,
			"target":34962
		},
		{
			"buffer":0,
			"byteLength":18864,
			"byteOffset":56592,
			"target":34962
		},
		{
			"buffer":0,
			"byteLength":18864,
			"byteOffset":75456,
			"target":34962
		},
		{
			"buffer":0,
			"byteLength":9432,
			"byteOffset":94320,
			"target":34962
		},
		{
			"buffer":0,
			"byteLength":18864,
			"byteOffset":103752,
			"target":34962
		},
		{
			"buffer":0,
			"byteLength":18864,
			"byteOffset":122616,
			"target":34962
		},
		{
			"buffer":0,
			"byteLength":12684,
			"byteOffset":141480,
			"target":34963
		},
		{
			"buffer":0,
			"byteLength":1872,
			"byteOffset":154164,
			"target":34962
		},
		{
			"buffer":0,
			"byteLength":1872,
			"byteOffset":156036,
			"target":34962
		},
		{
			"buffer":0,
			"byteLength":1248,
			"byteOffset":157908,
			"target":34962
		},
		{
			"buffer":0,
			"byteLength":1248,
			"byteOffset":159156,
			"target":34962
		},
		{
			"buffer":0,
			"byteLength":624,
			"byteOffset":160404,
			"target":34962
		},
		{
			"buffer":0,
			"byteLength":1248,
			"byteOffset":161028,
			"target":34962
		},
		{
			"buffer":0,
			"byteLength":1248,
			"byteOffset":162276,
			"target":34962
		},
		{
			"buffer":0,
			"byteLength":1044,
			"byteOffset":163524,
			"target":34963
		}
	],
	"samplers":[
		{
			"magFilter":9729,
			"minFilter":9987
		}
	],
	"buffers":[
		{
			"byteLength":164568,
			"uri":"SM_Plant_Grass_Field_Assemble_02.bin"
		}
	]
}
