{
	"asset":{
		"generator":"Khronos glTF Blender I/O v5.0.21",
		"version":"2.0"
	},
	"extensionsUsed":[
		"KHR_materials_clearcoat",
		"KHR_materials_specular",
		"KHR_materials_ior"
	],
	"scene":0,
	"scenes":[
		{
			"name":"Scene",
			"nodes":[
				0
			]
		}
	],
	"nodes":[
		{
			"mesh":0,
			"name":"SM_Plant_Grass_Short_Assemble_01"
		}
	],
	"materials":[
		{
			"alphaMode":"BLEND",
			"doubleSided":true,
			"extensions":{
				"KHR_materials_clearcoat":{
					"clearcoatRoughnessFactor":0
				},
				"KHR_materials_specular":{
					"specularFactor":0
				},
				"KHR_materials_ior":{
					"ior":1.4500000476837158
				}
			},
			"name":"Plant_Grass_Lavender_Mat",
			"normalTexture":{
				"index":0
			},
			"pbrMetallicRoughness":{
				"baseColorTexture":{
					"index":1
				},
				"metallicFactor":0,
				"metallicRoughnessTexture":{
					"index":2
				}
			}
		},
		{
			"alphaMode":"BLEND",
			"doubleSided":true,
			"extensions":{
				"KHR_materials_clearcoat":{
					"clearcoatRoughnessFactor":0
				},
				"KHR_materials_specular":{
					"specularFactor":0
				},
				"KHR_materials_ior":{
					"ior":1.4500000476837158
				}
			},
			"name":"Plant_Grass_Field_Mat",
			"normalTexture":{
				"index":3
			},
			"pbrMetallicRoughness":{
				"baseColorTexture":{
					"index":4
				},
				"metallicFactor":0,
				"metallicRoughnessTexture":{
					"index":5
				}
			}
		}
	],
	"meshes":[
		{
			"name":"Mesh.081",
			"primitives":[
				{
					"attributes":{
						"POSITION":0,
						"NORMAL":1,
						"TEXCOORD_0":2,
						"TEXCOORD_1":3,
						"COLOR_0":4,
						"COLOR_1":5
					},
					"indices":6,
					"material":0
				},
				{
					"attributes":{
						"POSITION":7,
						"NORMAL":8,
						"TEXCOORD_0":9,
						"TEXCOORD_1":10,
						"COLOR_0":11,
						"COLOR_1":12
					},
					"indices":13,
					"material":1
				}
			]
		}
	],
	"textures":[
		{
			"sampler":0,
			"source":0
		},
		{
			"sampler":0,
			"source":1
		},
		{
			"sampler":0,
			"source":2
		},
		{
			"sampler":0,
			"source":3
		},
		{
			"sampler":0,
			"source":4
		},
		{
			"sampler":0,
			"source":5
		}
	],
	"images":[
		{
			"mimeType":"image/png",
			"name":"T_Plant_Grass_Lavender_N.tga",
			"uri":"Textures/T_Plant_Grass_Lavender_N.tga"
		},
		{
			"mimeType":"image/png",
			"name":"T_Plant_Grass_Lavender_BCO.tga",
			"uri":"Textures/T_Plant_Grass_Lavender_BCO.tga"
		},
		{
			"mimeType":"image/png",
			"name":"T_Plant_Grass_Lavender_RTA.tga",
			"uri":"Textures/T_Plant_Grass_Lavender_RTA.tga"
		},
		{
			"mimeType":"image/png",
			"name":"T_Plant_Grass_Field_N.tga",
			"uri":"Textures/T_Plant_Grass_Field_N.tga"
		},
		{
			"mimeType":"image/png",
			"name":"T_Plant_Grass_Field_BCO.tga",
			"uri":"Textures/T_Plant_Grass_Field_BCO.tga"
		},
		{
			"mimeType":"image/png",
			"name":"T_Plant_Grass_Field_RTA.tga",
			"uri":"Textures/T_Plant_Grass_Field_RTA.tga"
		}
	],
	"accessors":[
		{
			"bufferView":0,
			"componentType":5126,
			"count":252,
			"max":[
				0.435642808675766,
				0.031257644295692444,
				0.33518582582473755
			],
			"min":[
				-0.5871541500091553,
				-0.007536516059190035,
				-0.4467166066169739
			],
			"type":"VEC3"
		},
		{
			"bufferView":1,
			"componentType":5126,
			"count":252,
			"type":"VEC3"
		},
		{
			"bufferView":2,
			"componentType":5126,
			"count":252,
			"type":"VEC2"
		},
		{
			"bufferView":3,
			"componentType":5126,
			"count":252,
			"type":"VEC2"
		},
		{
			"bufferView":4,
			"componentType":5121,
			"count":252,
			"normalized":true,
			"type":"VEC4"
		},
		{
			"bufferView":5,
			"componentType":5123,
			"count":252,
			"normalized":true,
			"type":"VEC4"
		},
		{
			"bufferView":6,
			"componentType":5123,
			"count":756,
			"type":"SCALAR"
		},
		{
			"bufferView":7,
			"componentType":5126,
			"count":335,
			"max":[
				0.5247305035591125,
				0.12987248599529266,
				0.49231451749801636
			],
			"min":[
				-0.49822455644607544,
				-0.018105696886777878,
				-0.2944132685661316
			],
			"type":"VEC3"
		},
		{
			"bufferView":8,
			"componentType":5126,
			"count":335,
			"type":"VEC3"
		},
		{
			"bufferView":9,
			"componentType":5126,
			"count":335,
			"type":"VEC2"
		},
		{
			"bufferView":10,
			"componentType":5126,
			"count":335,
			"type":"VEC2"
		},
		{
			"bufferView":11,
			"componentType":5121,
			"count":335,
			"normalized":true,
			"type":"VEC4"
		},
		{
			"bufferView":12,
			"componentType":5123,
			"count":335,
			"normalized":true,
			"type":"VEC4"
		},
		{
			"bufferView":13,
			"componentType":5123,
			"count":603,
			"type":"SCALAR"
		}
	],
	"bufferViews":[
		{
			"buffer":0,
			"byteLength":3024,
			"byteOffset":0,
			"target":34962
		},
		{
			"buffer":0,
			"byteLength":3024,
			"byteOffset":3024,
			"target":34962
		},
		{
			"buffer":0,
			"byteLength":2016,
			"byteOffset":6048,
			"target":34962
		},
		{
			"buffer":0,
			"byteLength":2016,
			"byteOffset":8064,
			"target":34962
		},
		{
			"buffer":0,
			"byteLength":1008,
			"byteOffset":10080,
			"target":34962
		},
		{
			"buffer":0,
			"byteLength":2016,
			"byteOffset":11088,
			"target":34962
		},
		{
			"buffer":0,
			"byteLength":1512,
			"byteOffset":13104,
			"target":34963
		},
		{
			"buffer":0,
			"byteLength":4020,
			"byteOffset":14616,
			"target":34962
		},
		{
			"buffer":0,
			"byteLength":4020,
			"byteOffset":18636,
			"target":34962
		},
		{
			"buffer":0,
			"byteLength":2680,
			"byteOffset":22656,
			"target":34962
		},
		{
			"buffer":0,
			"byteLength":2680,
			"byteOffset":25336,
			"target":34962
		},
		{
			"buffer":0,
			"byteLength":1340,
			"byteOffset":28016,
			"target":34962
		},
		{
			"buffer":0,
			"byteLength":2680,
			"byteOffset":29356,
			"target":34962
		},
		{
			"buffer":0,
			"byteLength":1206,
			"byteOffset":32036,
			"target":34963
		}
	],
	"samplers":[
		{
			"magFilter":9729,
			"minFilter":9987
		}
	],
	"buffers":[
		{
			"byteLength":33244,
			"uri":"SM_Plant_Grass_Short_Assemble_01.bin"
		}
	]
}
