{
	"asset":{
		"generator":"Khronos glTF Blender I/O v5.0.21",
		"version":"2.0"
	},
	"extensionsUsed":[
		"KHR_materials_clearcoat",
		"KHR_materials_specular",
		"KHR_materials_ior"
	],
	"scene":0,
	"scenes":[
		{
			"name":"Scene",
			"nodes":[
				0
			]
		}
	],
	"nodes":[
		{
			"mesh":0,
			"name":"SM_Plant_Grass_Fern_02"
		}
	],
	"materials":[
		{
			"alphaMode":"BLEND",
			"doubleSided":true,
			"extensions":{
				"KHR_materials_clearcoat":{
					"clearcoatRoughnessFactor":0
				},
				"KHR_materials_specular":{
					"specularFactor":0
				},
				"KHR_materials_ior":{
					"ior":1.4500000476837158
				}
			},
			"name":"Plant_Grass_Fern_Mat",
			"normalTexture":{
				"index":0
			},
			"pbrMetallicRoughness":{
				"baseColorTexture":{
					"index":1
				},
				"metallicFactor":0,
				"metallicRoughnessTexture":{
					"index":2
				}
			}
		}
	],
	"meshes":[
		{
			"name":"Mesh.006",
			"primitives":[
				{
					"attributes":{
						"POSITION":0,
						"NORMAL":1,
						"TEXCOORD_0":2,
						"TEXCOORD_1":3,
						"COLOR_0":4,
						"COLOR_1":5
					},
					"indices":6,
					"material":0
				}
			]
		}
	],
	"textures":[
		{
			"sampler":0,
			"source":0
		},
		{
			"sampler":0,
			"source":1
		},
		{
			"sampler":0,
			"source":2
		}
	],
	"images":[
		{
			"mimeType":"image/png",
			"name":"T_Plant_Grass_Fern_N.tga",
			"uri":"Textures/T_Plant_Grass_Fern_N.tga"
		},
		{
			"mimeType":"image/png",
			"name":"T_Plant_Grass_Fern_BCO.tga",
			"uri":"Textures/T_Plant_Grass_Fern_BCO.tga"
		},
		{
			"mimeType":"image/png",
			"name":"T_Plant_Grass_Fern_RTA.tga",
			"uri":"Textures/T_Plant_Grass_Fern_RTA.tga"
		}
	],
	"accessors":[
		{
			"bufferView":0,
			"componentType":5126,
			"count":219,
			"max":[
				0.7239908576011658,
				0.48598214983940125,
				0.8304747343063354
			],
			"min":[
				-0.8241735100746155,
				-0.021577946841716766,
				-0.7822815775871277
			],
			"type":"VEC3"
		},
		{
			"bufferView":1,
			"componentType":5126,
			"count":219,
			"type":"VEC3"
		},
		{
			"bufferView":2,
			"componentType":5126,
			"count":219,
			"type":"VEC2"
		},
		{
			"bufferView":3,
			"componentType":5126,
			"count":219,
			"type":"VEC2"
		},
		{
			"bufferView":4,
			"componentType":5121,
			"count":219,
			"normalized":true,
			"type":"VEC4"
		},
		{
			"bufferView":5,
			"componentType":5123,
			"count":219,
			"normalized":true,
			"type":"VEC4"
		},
		{
			"bufferView":6,
			"componentType":5123,
			"count":756,
			"type":"SCALAR"
		}
	],
	"bufferViews":[
		{
			"buffer":0,
			"byteLength":2628,
			"byteOffset":0,
			"target":34962
		},
		{
			"buffer":0,
			"byteLength":2628,
			"byteOffset":2628,
			"target":34962
		},
		{
			"buffer":0,
			"byteLength":1752,
			"byteOffset":5256,
			"target":34962
		},
		{
			"buffer":0,
			"byteLength":1752,
			"byteOffset":7008,
			"target":34962
		},
		{
			"buffer":0,
			"byteLength":876,
			"byteOffset":8760,
			"target":34962
		},
		{
			"buffer":0,
			"byteLength":1752,
			"byteOffset":9636,
			"target":34962
		},
		{
			"buffer":0,
			"byteLength":1512,
			"byteOffset":11388,
			"target":34963
		}
	],
	"samplers":[
		{
			"magFilter":9729,
			"minFilter":9987
		}
	],
	"buffers":[
		{
			"byteLength":12900,
			"uri":"SM_Plant_Grass_Fern_02.bin"
		}
	]
}
