{
	"asset":{
		"generator":"Khronos glTF Blender I/O v5.0.21",
		"version":"2.0"
	},
	"extensionsUsed":[
		"KHR_materials_clearcoat",
		"KHR_materials_specular",
		"KHR_materials_ior"
	],
	"scene":0,
	"scenes":[
		{
			"name":"Scene",
			"nodes":[
				0
			]
		}
	],
	"nodes":[
		{
			"mesh":0,
			"name":"SM_Plant_Grass_Fern_01"
		}
	],
	"materials":[
		{
			"alphaMode":"BLEND",
			"doubleSided":true,
			"extensions":{
				"KHR_materials_clearcoat":{
					"clearcoatRoughnessFactor":0
				},
				"KHR_materials_specular":{
					"specularFactor":0
				},
				"KHR_materials_ior":{
					"ior":1.4500000476837158
				}
			},
			"name":"Plant_Grass_Fern_Mat",
			"normalTexture":{
				"index":0
			},
			"pbrMetallicRoughness":{
				"baseColorTexture":{
					"index":1
				},
				"metallicFactor":0,
				"metallicRoughnessTexture":{
					"index":2
				}
			}
		}
	],
	"meshes":[
		{
			"name":"Mesh.005",
			"primitives":[
				{
					"attributes":{
						"POSITION":0,
						"NORMAL":1,
						"TEXCOORD_0":2,
						"TEXCOORD_1":3,
						"COLOR_0":4,
						"COLOR_1":5
					},
					"indices":6,
					"material":0
				}
			]
		}
	],
	"textures":[
		{
			"sampler":0,
			"source":0
		},
		{
			"sampler":0,
			"source":1
		},
		{
			"sampler":0,
			"source":2
		}
	],
	"images":[
		{
			"mimeType":"image/png",
			"name":"T_Plant_Grass_Fern_N.tga",
			"uri":"Textures/T_Plant_Grass_Fern_N.tga"
		},
		{
			"mimeType":"image/png",
			"name":"T_Plant_Grass_Fern_BCO.tga",
			"uri":"Textures/T_Plant_Grass_Fern_BCO.tga"
		},
		{
			"mimeType":"image/png",
			"name":"T_Plant_Grass_Fern_RTA.tga",
			"uri":"Textures/T_Plant_Grass_Fern_RTA.tga"
		}
	],
	"accessors":[
		{
			"bufferView":0,
			"componentType":5126,
			"count":174,
			"max":[
				0.7543912529945374,
				0.5916462540626526,
				0.7562295198440552
			],
			"min":[
				-0.7486417293548584,
				-3.5980722845607715e-09,
				-0.825408399105072
			],
			"type":"VEC3"
		},
		{
			"bufferView":1,
			"componentType":5126,
			"count":174,
			"type":"VEC3"
		},
		{
			"bufferView":2,
			"componentType":5126,
			"count":174,
			"type":"VEC2"
		},
		{
			"bufferView":3,
			"componentType":5126,
			"count":174,
			"type":"VEC2"
		},
		{
			"bufferView":4,
			"componentType":5121,
			"count":174,
			"normalized":true,
			"type":"VEC4"
		},
		{
			"bufferView":5,
			"componentType":5123,
			"count":174,
			"normalized":true,
			"type":"VEC4"
		},
		{
			"bufferView":6,
			"componentType":5123,
			"count":600,
			"type":"SCALAR"
		}
	],
	"bufferViews":[
		{
			"buffer":0,
			"byteLength":2088,
			"byteOffset":0,
			"target":34962
		},
		{
			"buffer":0,
			"byteLength":2088,
			"byteOffset":2088,
			"target":34962
		},
		{
			"buffer":0,
			"byteLength":1392,
			"byteOffset":4176,
			"target":34962
		},
		{
			"buffer":0,
			"byteLength":1392,
			"byteOffset":5568,
			"target":34962
		},
		{
			"buffer":0,
			"byteLength":696,
			"byteOffset":6960,
			"target":34962
		},
		{
			"buffer":0,
			"byteLength":1392,
			"byteOffset":7656,
			"target":34962
		},
		{
			"buffer":0,
			"byteLength":1200,
			"byteOffset":9048,
			"target":34963
		}
	],
	"samplers":[
		{
			"magFilter":9729,
			"minFilter":9987
		}
	],
	"buffers":[
		{
			"byteLength":10248,
			"uri":"SM_Plant_Grass_Fern_01.bin"
		}
	]
}
