{
	"asset":{
		"generator":"Khronos glTF Blender I/O v5.0.21",
		"version":"2.0"
	},
	"extensionsUsed":[
		"KHR_materials_clearcoat",
		"KHR_materials_specular",
		"KHR_materials_ior"
	],
	"scene":0,
	"scenes":[
		{
			"name":"Scene",
			"nodes":[
				0
			]
		}
	],
	"nodes":[
		{
			"mesh":0,
			"name":"SM_Plant_Grass_Yarrow_03"
		}
	],
	"materials":[
		{
			"alphaMode":"BLEND",
			"doubleSided":true,
			"extensions":{
				"KHR_materials_clearcoat":{
					"clearcoatRoughnessFactor":0
				},
				"KHR_materials_specular":{
					"specularFactor":0
				},
				"KHR_materials_ior":{
					"ior":1.4500000476837158
				}
			},
			"name":"Plant_Grass_Yarrow_Mat",
			"normalTexture":{
				"index":0
			},
			"pbrMetallicRoughness":{
				"baseColorTexture":{
					"index":1
				},
				"metallicFactor":0,
				"metallicRoughnessTexture":{
					"index":2
				}
			}
		}
	],
	"meshes":[
		{
			"name":"Mesh.084",
			"primitives":[
				{
					"attributes":{
						"POSITION":0,
						"NORMAL":1,
						"TEXCOORD_0":2,
						"TEXCOORD_1":3,
						"COLOR_0":4,
						"COLOR_1":5
					},
					"indices":6,
					"material":0
				}
			]
		}
	],
	"textures":[
		{
			"sampler":0,
			"source":0
		},
		{
			"sampler":0,
			"source":1
		},
		{
			"sampler":0,
			"source":2
		}
	],
	"images":[
		{
			"mimeType":"image/png",
			"name":"T_Plant_Grass_Yarrow_N.tga",
			"uri":"Textures/T_Plant_Grass_Yarrow_N.tga"
		},
		{
			"mimeType":"image/png",
			"name":"T_Plant_Grass_Yarrow_BCO.tga",
			"uri":"Textures/T_Plant_Grass_Yarrow_BCO.tga"
		},
		{
			"mimeType":"image/png",
			"name":"T_Plant_Grass_Yarrow_RTA.tga",
			"uri":"Textures/T_Plant_Grass_Yarrow_RTA.tga"
		}
	],
	"accessors":[
		{
			"bufferView":0,
			"componentType":5126,
			"count":4246,
			"max":[
				0.4391278624534607,
				0.584317147731781,
				0.4687550663948059
			],
			"min":[
				-0.4261142313480377,
				-0.05215265229344368,
				-0.17983506619930267
			],
			"type":"VEC3"
		},
		{
			"bufferView":1,
			"componentType":5126,
			"count":4246,
			"type":"VEC3"
		},
		{
			"bufferView":2,
			"componentType":5126,
			"count":4246,
			"type":"VEC2"
		},
		{
			"bufferView":3,
			"componentType":5126,
			"count":4246,
			"type":"VEC2"
		},
		{
			"bufferView":4,
			"componentType":5121,
			"count":4246,
			"normalized":true,
			"type":"VEC4"
		},
		{
			"bufferView":5,
			"componentType":5123,
			"count":4246,
			"normalized":true,
			"type":"VEC4"
		},
		{
			"bufferView":6,
			"componentType":5123,
			"count":13578,
			"type":"SCALAR"
		}
	],
	"bufferViews":[
		{
			"buffer":0,
			"byteLength":50952,
			"byteOffset":0,
			"target":34962
		},
		{
			"buffer":0,
			"byteLength":50952,
			"byteOffset":50952,
			"target":34962
		},
		{
			"buffer":0,
			"byteLength":33968,
			"byteOffset":101904,
			"target":34962
		},
		{
			"buffer":0,
			"byteLength":33968,
			"byteOffset":135872,
			"target":34962
		},
		{
			"buffer":0,
			"byteLength":16984,
			"byteOffset":169840,
			"target":34962
		},
		{
			"buffer":0,
			"byteLength":33968,
			"byteOffset":186824,
			"target":34962
		},
		{
			"buffer":0,
			"byteLength":27156,
			"byteOffset":220792,
			"target":34963
		}
	],
	"samplers":[
		{
			"magFilter":9729,
			"minFilter":9987
		}
	],
	"buffers":[
		{
			"byteLength":247948,
			"uri":"SM_Plant_Grass_Yarrow_03.bin"
		}
	]
}
