{
	"asset":{
		"generator":"Khronos glTF Blender I/O v5.0.21",
		"version":"2.0"
	},
	"extensionsUsed":[
		"KHR_materials_clearcoat",
		"KHR_materials_specular",
		"KHR_materials_ior"
	],
	"scene":0,
	"scenes":[
		{
			"name":"Scene",
			"nodes":[
				0
			]
		}
	],
	"nodes":[
		{
			"mesh":0,
			"name":"SM_Plant_Grass_Ezepnik_05"
		}
	],
	"materials":[
		{
			"alphaMode":"BLEND",
			"doubleSided":true,
			"extensions":{
				"KHR_materials_clearcoat":{
					"clearcoatRoughnessFactor":0
				},
				"KHR_materials_specular":{
					"specularFactor":0
				},
				"KHR_materials_ior":{
					"ior":1.4500000476837158
				}
			},
			"name":"Plant_Grass_Field_Mat",
			"normalTexture":{
				"index":0
			},
			"pbrMetallicRoughness":{
				"baseColorTexture":{
					"index":1
				},
				"metallicFactor":0,
				"metallicRoughnessTexture":{
					"index":2
				}
			}
		}
	],
	"meshes":[
		{
			"name":"Mesh.004",
			"primitives":[
				{
					"attributes":{
						"POSITION":0,
						"NORMAL":1,
						"TEXCOORD_0":2,
						"TEXCOORD_1":3,
						"COLOR_0":4,
						"COLOR_1":5
					},
					"indices":6,
					"material":0
				}
			]
		}
	],
	"textures":[
		{
			"sampler":0,
			"source":0
		},
		{
			"sampler":0,
			"source":1
		},
		{
			"sampler":0,
			"source":2
		}
	],
	"images":[
		{
			"mimeType":"image/png",
			"name":"T_Plant_Grass_Field_N.tga",
			"uri":"Textures/T_Plant_Grass_Field_N.tga"
		},
		{
			"mimeType":"image/png",
			"name":"T_Plant_Grass_Field_BCO.tga",
			"uri":"Textures/T_Plant_Grass_Field_BCO.tga"
		},
		{
			"mimeType":"image/png",
			"name":"T_Plant_Grass_Field_RTA.tga",
			"uri":"Textures/T_Plant_Grass_Field_RTA.tga"
		}
	],
	"accessors":[
		{
			"bufferView":0,
			"componentType":5126,
			"count":5664,
			"max":[
				0.7320952415466309,
				0.1884848028421402,
				0.5058761239051819
			],
			"min":[
				-0.7172892689704895,
				-0.007651073392480612,
				-0.5813905596733093
			],
			"type":"VEC3"
		},
		{
			"bufferView":1,
			"componentType":5126,
			"count":5664,
			"type":"VEC3"
		},
		{
			"bufferView":2,
			"componentType":5126,
			"count":5664,
			"type":"VEC2"
		},
		{
			"bufferView":3,
			"componentType":5126,
			"count":5664,
			"type":"VEC2"
		},
		{
			"bufferView":4,
			"componentType":5121,
			"count":5664,
			"normalized":true,
			"type":"VEC4"
		},
		{
			"bufferView":5,
			"componentType":5123,
			"count":5664,
			"normalized":true,
			"type":"VEC4"
		},
		{
			"bufferView":6,
			"componentType":5123,
			"count":14694,
			"type":"SCALAR"
		}
	],
	"bufferViews":[
		{
			"buffer":0,
			"byteLength":67968,
			"byteOffset":0,
			"target":34962
		},
		{
			"buffer":0,
			"byteLength":67968,
			"byteOffset":67968,
			"target":34962
		},
		{
			"buffer":0,
			"byteLength":45312,
			"byteOffset":135936,
			"target":34962
		},
		{
			"buffer":0,
			"byteLength":45312,
			"byteOffset":181248,
			"target":34962
		},
		{
			"buffer":0,
			"byteLength":22656,
			"byteOffset":226560,
			"target":34962
		},
		{
			"buffer":0,
			"byteLength":45312,
			"byteOffset":249216,
			"target":34962
		},
		{
			"buffer":0,
			"byteLength":29388,
			"byteOffset":294528,
			"target":34963
		}
	],
	"samplers":[
		{
			"magFilter":9729,
			"minFilter":9987
		}
	],
	"buffers":[
		{
			"byteLength":323916,
			"uri":"SM_Plant_Grass_Ezepnik_05.bin"
		}
	]
}
