{
	"asset":{
		"generator":"Khronos glTF Blender I/O v5.0.21",
		"version":"2.0"
	},
	"extensionsUsed":[
		"KHR_materials_clearcoat",
		"KHR_materials_specular",
		"KHR_materials_ior"
	],
	"scene":0,
	"scenes":[
		{
			"name":"Scene",
			"nodes":[
				0
			]
		}
	],
	"nodes":[
		{
			"mesh":0,
			"name":"SM_Plant_Grass_Field_Assemble_04"
		}
	],
	"materials":[
		{
			"alphaMode":"BLEND",
			"doubleSided":true,
			"extensions":{
				"KHR_materials_clearcoat":{
					"clearcoatRoughnessFactor":0
				},
				"KHR_materials_specular":{
					"specularFactor":0
				},
				"KHR_materials_ior":{
					"ior":1.4500000476837158
				}
			},
			"name":"Plant_Grass_Field_Mat",
			"normalTexture":{
				"index":0
			},
			"pbrMetallicRoughness":{
				"baseColorTexture":{
					"index":1
				},
				"metallicFactor":0,
				"metallicRoughnessTexture":{
					"index":2
				}
			}
		},
		{
			"alphaMode":"BLEND",
			"doubleSided":true,
			"extensions":{
				"KHR_materials_clearcoat":{
					"clearcoatRoughnessFactor":0
				},
				"KHR_materials_specular":{
					"specularFactor":0
				},
				"KHR_materials_ior":{
					"ior":1.4500000476837158
				}
			},
			"name":"Plant_Grass_Yarrow_Mat",
			"normalTexture":{
				"index":3
			},
			"pbrMetallicRoughness":{
				"baseColorTexture":{
					"index":4
				},
				"metallicFactor":0,
				"metallicRoughnessTexture":{
					"index":5
				}
			}
		},
		{
			"alphaMode":"BLEND",
			"doubleSided":true,
			"extensions":{
				"KHR_materials_clearcoat":{
					"clearcoatRoughnessFactor":0
				},
				"KHR_materials_specular":{
					"specularFactor":0
				},
				"KHR_materials_ior":{
					"ior":1.4500000476837158
				}
			},
			"name":"Plant_Grass_Lavender_Mat",
			"normalTexture":{
				"index":6
			},
			"pbrMetallicRoughness":{
				"baseColorTexture":{
					"index":7
				},
				"metallicFactor":0,
				"metallicRoughnessTexture":{
					"index":8
				}
			}
		}
	],
	"meshes":[
		{
			"name":"Mesh.032",
			"primitives":[
				{
					"attributes":{
						"POSITION":0,
						"NORMAL":1,
						"TEXCOORD_0":2,
						"TEXCOORD_1":3,
						"COLOR_0":4,
						"COLOR_1":5,
						"COLOR_2":6
					},
					"indices":7,
					"material":0
				},
				{
					"attributes":{
						"POSITION":8,
						"NORMAL":9,
						"TEXCOORD_0":10,
						"TEXCOORD_1":11,
						"COLOR_0":12,
						"COLOR_1":13,
						"COLOR_2":14
					},
					"indices":15,
					"material":1
				},
				{
					"attributes":{
						"POSITION":16,
						"NORMAL":17,
						"TEXCOORD_0":18,
						"TEXCOORD_1":19,
						"COLOR_0":20,
						"COLOR_1":21,
						"COLOR_2":22
					},
					"indices":23,
					"material":2
				}
			]
		}
	],
	"textures":[
		{
			"sampler":0,
			"source":0
		},
		{
			"sampler":0,
			"source":1
		},
		{
			"sampler":0,
			"source":2
		},
		{
			"sampler":0,
			"source":3
		},
		{
			"sampler":0,
			"source":4
		},
		{
			"sampler":0,
			"source":5
		},
		{
			"sampler":0,
			"source":6
		},
		{
			"sampler":0,
			"source":7
		},
		{
			"sampler":0,
			"source":8
		}
	],
	"images":[
		{
			"mimeType":"image/png",
			"name":"T_Plant_Grass_Field_N.tga",
			"uri":"Textures/T_Plant_Grass_Field_N.tga"
		},
		{
			"mimeType":"image/png",
			"name":"T_Plant_Grass_Field_BCO.tga",
			"uri":"Textures/T_Plant_Grass_Field_BCO.tga"
		},
		{
			"mimeType":"image/png",
			"name":"T_Plant_Grass_Field_RTA.tga",
			"uri":"Textures/T_Plant_Grass_Field_RTA.tga"
		},
		{
			"mimeType":"image/png",
			"name":"T_Plant_Grass_Yarrow_N.tga",
			"uri":"Textures/T_Plant_Grass_Yarrow_N.tga"
		},
		{
			"mimeType":"image/png",
			"name":"T_Plant_Grass_Yarrow_BCO.tga",
			"uri":"Textures/T_Plant_Grass_Yarrow_BCO.tga"
		},
		{
			"mimeType":"image/png",
			"name":"T_Plant_Grass_Yarrow_RTA.tga",
			"uri":"Textures/T_Plant_Grass_Yarrow_RTA.tga"
		},
		{
			"mimeType":"image/png",
			"name":"T_Plant_Grass_Lavender_N.tga",
			"uri":"Textures/T_Plant_Grass_Lavender_N.tga"
		},
		{
			"mimeType":"image/png",
			"name":"T_Plant_Grass_Lavender_BCO.tga",
			"uri":"Textures/T_Plant_Grass_Lavender_BCO.tga"
		},
		{
			"mimeType":"image/png",
			"name":"T_Plant_Grass_Lavender_RTA.tga",
			"uri":"Textures/T_Plant_Grass_Lavender_RTA.tga"
		}
	],
	"accessors":[
		{
			"bufferView":0,
			"componentType":5126,
			"count":4282,
			"max":[
				0.8194787502288818,
				0.4190017282962799,
				0.5682597756385803
			],
			"min":[
				-0.8305574059486389,
				-0.041179098188877106,
				-0.5618494153022766
			],
			"type":"VEC3"
		},
		{
			"bufferView":1,
			"componentType":5126,
			"count":4282,
			"type":"VEC3"
		},
		{
			"bufferView":2,
			"componentType":5126,
			"count":4282,
			"type":"VEC2"
		},
		{
			"bufferView":3,
			"componentType":5126,
			"count":4282,
			"type":"VEC2"
		},
		{
			"bufferView":4,
			"componentType":5121,
			"count":4282,
			"normalized":true,
			"type":"VEC4"
		},
		{
			"bufferView":5,
			"componentType":5123,
			"count":4282,
			"normalized":true,
			"type":"VEC4"
		},
		{
			"bufferView":6,
			"componentType":5123,
			"count":4282,
			"normalized":true,
			"type":"VEC4"
		},
		{
			"bufferView":7,
			"componentType":5123,
			"count":11532,
			"type":"SCALAR"
		},
		{
			"bufferView":8,
			"componentType":5126,
			"count":182,
			"max":[
				0.5152695775032043,
				0.1187354251742363,
				-0.23181845247745514
			],
			"min":[
				0.2105218470096588,
				-0.0019160504452884197,
				-0.48876258730888367
			],
			"type":"VEC3"
		},
		{
			"bufferView":9,
			"componentType":5126,
			"count":182,
			"type":"VEC3"
		},
		{
			"bufferView":10,
			"componentType":5126,
			"count":182,
			"type":"VEC2"
		},
		{
			"bufferView":11,
			"componentType":5126,
			"count":182,
			"type":"VEC2"
		},
		{
			"bufferView":12,
			"componentType":5121,
			"count":182,
			"normalized":true,
			"type":"VEC4"
		},
		{
			"bufferView":13,
			"componentType":5123,
			"count":182,
			"normalized":true,
			"type":"VEC4"
		},
		{
			"bufferView":14,
			"componentType":5123,
			"count":182,
			"normalized":true,
			"type":"VEC4"
		},
		{
			"bufferView":15,
			"componentType":5123,
			"count":609,
			"type":"SCALAR"
		},
		{
			"bufferView":16,
			"componentType":5126,
			"count":52,
			"max":[
				0.616119921207428,
				0.02411399967968464,
				0.4284631907939911
			],
			"min":[
				-0.21873372793197632,
				-5.596016094955303e-08,
				-0.3661939799785614
			],
			"type":"VEC3"
		},
		{
			"bufferView":17,
			"componentType":5126,
			"count":52,
			"type":"VEC3"
		},
		{
			"bufferView":18,
			"componentType":5126,
			"count":52,
			"type":"VEC2"
		},
		{
			"bufferView":19,
			"componentType":5126,
			"count":52,
			"type":"VEC2"
		},
		{
			"bufferView":20,
			"componentType":5121,
			"count":52,
			"normalized":true,
			"type":"VEC4"
		},
		{
			"bufferView":21,
			"componentType":5123,
			"count":52,
			"normalized":true,
			"type":"VEC4"
		},
		{
			"bufferView":22,
			"componentType":5123,
			"count":52,
			"normalized":true,
			"type":"VEC4"
		},
		{
			"bufferView":23,
			"componentType":5123,
			"count":144,
			"type":"SCALAR"
		}
	],
	"bufferViews":[
		{
			"buffer":0,
			"byteLength":51384,
			"byteOffset":0,
			"target":34962
		},
		{
			"buffer":0,
			"byteLength":51384,
			"byteOffset":51384,
			"target":34962
		},
		{
			"buffer":0,
			"byteLength":34256,
			"byteOffset":102768,
			"target":34962
		},
		{
			"buffer":0,
			"byteLength":34256,
			"byteOffset":137024,
			"target":34962
		},
		{
			"buffer":0,
			"byteLength":17128,
			"byteOffset":171280,
			"target":34962
		},
		{
			"buffer":0,
			"byteLength":34256,
			"byteOffset":188408,
			"target":34962
		},
		{
			"buffer":0,
			"byteLength":34256,
			"byteOffset":222664,
			"target":34962
		},
		{
			"buffer":0,
			"byteLength":23064,
			"byteOffset":256920,
			"target":34963
		},
		{
			"buffer":0,
			"byteLength":2184,
			"byteOffset":279984,
			"target":34962
		},
		{
			"buffer":0,
			"byteLength":2184,
			"byteOffset":282168,
			"target":34962
		},
		{
			"buffer":0,
			"byteLength":1456,
			"byteOffset":284352,
			"target":34962
		},
		{
			"buffer":0,
			"byteLength":1456,
			"byteOffset":285808,
			"target":34962
		},
		{
			"buffer":0,
			"byteLength":728,
			"byteOffset":287264,
			"target":34962
		},
		{
			"buffer":0,
			"byteLength":1456,
			"byteOffset":287992,
			"target":34962
		},
		{
			"buffer":0,
			"byteLength":1456,
			"byteOffset":289448,
			"target":34962
		},
		{
			"buffer":0,
			"byteLength":1218,
			"byteOffset":290904,
			"target":34963
		},
		{
			"buffer":0,
			"byteLength":624,
			"byteOffset":292124,
			"target":34962
		},
		{
			"buffer":0,
			"byteLength":624,
			"byteOffset":292748,
			"target":34962
		},
		{
			"buffer":0,
			"byteLength":416,
			"byteOffset":293372,
			"target":34962
		},
		{
			"buffer":0,
			"byteLength":416,
			"byteOffset":293788,
			"target":34962
		},
		{
			"buffer":0,
			"byteLength":208,
			"byteOffset":294204,
			"target":34962
		},
		{
			"buffer":0,
			"byteLength":416,
			"byteOffset":294412,
			"target":34962
		},
		{
			"buffer":0,
			"byteLength":416,
			"byteOffset":294828,
			"target":34962
		},
		{
			"buffer":0,
			"byteLength":288,
			"byteOffset":295244,
			"target":34963
		}
	],
	"samplers":[
		{
			"magFilter":9729,
			"minFilter":9987
		}
	],
	"buffers":[
		{
			"byteLength":295532,
			"uri":"SM_Plant_Grass_Field_Assemble_04.bin"
		}
	]
}
