{
	"asset":{
		"generator":"Khronos glTF Blender I/O v5.0.21",
		"version":"2.0"
	},
	"extensionsUsed":[
		"KHR_materials_clearcoat",
		"KHR_materials_specular",
		"KHR_materials_ior"
	],
	"scene":0,
	"scenes":[
		{
			"name":"Scene",
			"nodes":[
				0
			]
		}
	],
	"nodes":[
		{
			"mesh":0,
			"name":"SM_Plant_Grass_Lavender_02"
		}
	],
	"materials":[
		{
			"alphaMode":"BLEND",
			"doubleSided":true,
			"extensions":{
				"KHR_materials_clearcoat":{
					"clearcoatRoughnessFactor":0
				},
				"KHR_materials_specular":{
					"specularFactor":0
				},
				"KHR_materials_ior":{
					"ior":1.4500000476837158
				}
			},
			"name":"Plant_Grass_Lavender_Mat",
			"normalTexture":{
				"index":0
			},
			"pbrMetallicRoughness":{
				"baseColorTexture":{
					"index":1
				},
				"metallicFactor":0,
				"metallicRoughnessTexture":{
					"index":2
				}
			}
		}
	],
	"meshes":[
		{
			"name":"Mesh.055",
			"primitives":[
				{
					"attributes":{
						"POSITION":0,
						"NORMAL":1,
						"TEXCOORD_0":2,
						"TEXCOORD_1":3,
						"COLOR_0":4,
						"COLOR_1":5,
						"COLOR_2":6
					},
					"indices":7,
					"material":0
				}
			]
		}
	],
	"textures":[
		{
			"sampler":0,
			"source":0
		},
		{
			"sampler":0,
			"source":1
		},
		{
			"sampler":0,
			"source":2
		}
	],
	"images":[
		{
			"mimeType":"image/png",
			"name":"T_Plant_Grass_Lavender_N.tga",
			"uri":"Textures/T_Plant_Grass_Lavender_N.tga"
		},
		{
			"mimeType":"image/png",
			"name":"T_Plant_Grass_Lavender_BCO.tga",
			"uri":"Textures/T_Plant_Grass_Lavender_BCO.tga"
		},
		{
			"mimeType":"image/png",
			"name":"T_Plant_Grass_Lavender_RTA.tga",
			"uri":"Textures/T_Plant_Grass_Lavender_RTA.tga"
		}
	],
	"accessors":[
		{
			"bufferView":0,
			"componentType":5126,
			"count":181,
			"max":[
				0.060729265213012695,
				0.2918558418750763,
				0.07984261959791183
			],
			"min":[
				-0.09416484832763672,
				-0.01677718199789524,
				-0.08920547366142273
			],
			"type":"VEC3"
		},
		{
			"bufferView":1,
			"componentType":5126,
			"count":181,
			"type":"VEC3"
		},
		{
			"bufferView":2,
			"componentType":5126,
			"count":181,
			"type":"VEC2"
		},
		{
			"bufferView":3,
			"componentType":5126,
			"count":181,
			"type":"VEC2"
		},
		{
			"bufferView":4,
			"componentType":5121,
			"count":181,
			"normalized":true,
			"type":"VEC4"
		},
		{
			"bufferView":5,
			"componentType":5123,
			"count":181,
			"normalized":true,
			"type":"VEC4"
		},
		{
			"bufferView":6,
			"componentType":5123,
			"count":181,
			"normalized":true,
			"type":"VEC4"
		},
		{
			"bufferView":7,
			"componentType":5123,
			"count":552,
			"type":"SCALAR"
		}
	],
	"bufferViews":[
		{
			"buffer":0,
			"byteLength":2172,
			"byteOffset":0,
			"target":34962
		},
		{
			"buffer":0,
			"byteLength":2172,
			"byteOffset":2172,
			"target":34962
		},
		{
			"buffer":0,
			"byteLength":1448,
			"byteOffset":4344,
			"target":34962
		},
		{
			"buffer":0,
			"byteLength":1448,
			"byteOffset":5792,
			"target":34962
		},
		{
			"buffer":0,
			"byteLength":724,
			"byteOffset":7240,
			"target":34962
		},
		{
			"buffer":0,
			"byteLength":1448,
			"byteOffset":7964,
			"target":34962
		},
		{
			"buffer":0,
			"byteLength":1448,
			"byteOffset":9412,
			"target":34962
		},
		{
			"buffer":0,
			"byteLength":1104,
			"byteOffset":10860,
			"target":34963
		}
	],
	"samplers":[
		{
			"magFilter":9729,
			"minFilter":9987
		}
	],
	"buffers":[
		{
			"byteLength":11964,
			"uri":"SM_Plant_Grass_Lavender_02.bin"
		}
	]
}
